<svg width="114" height="114" viewBox="0 0 114 114" fill="none" xmlns="http://www.w3.org/2000/svg">
<path d="M24.9846 9.84054C34.5043 3.37791 45.7569 -0.0524232 57.2628 0.000622941C68.7687 0.0536767 79.9892 3.58762 89.4489 10.1378L57 57L24.9846 9.84054Z" fill="white"/>
<circle cx="56.9024" cy="56.8221" r="44.9512" fill="#0CE7F7"/>
<path d="M45.7252 53.1036C44.7225 53.1036 43.8585 52.9383 43.1332 52.6076C42.4079 52.2769 41.8425 51.7916 41.4372 51.1516C41.0425 50.5116 40.8239 49.7169 40.7812 48.7676C40.7705 48.3303 40.7652 47.8609 40.7652 47.3596C40.7652 46.8583 40.7705 46.3783 40.7812 45.9196C40.8239 44.9916 41.0479 44.2023 41.4532 43.5516C41.8585 42.9009 42.4239 42.4103 43.1492 42.0796C43.8745 41.7489 44.7332 41.5836 45.7252 41.5836C46.4292 41.5836 47.0799 41.6743 47.6772 41.8556C48.2745 42.0263 48.7972 42.2823 49.2452 42.6236C49.6932 42.9543 50.0399 43.3596 50.2852 43.8396C50.5412 44.3089 50.6745 44.8423 50.6852 45.4396C50.6959 45.5356 50.6639 45.6156 50.5892 45.6796C50.5252 45.7436 50.4452 45.7756 50.3492 45.7756H48.1892C48.0505 45.7756 47.9439 45.7489 47.8692 45.6956C47.7945 45.6316 47.7305 45.5196 47.6772 45.3596C47.5279 44.7943 47.2825 44.4103 46.9412 44.2076C46.6105 43.9943 46.1999 43.8876 45.7092 43.8876C45.1225 43.8876 44.6585 44.0529 44.3172 44.3836C43.9759 44.7036 43.7892 45.2423 43.7572 45.9996C43.7252 46.8743 43.7252 47.7703 43.7572 48.6876C43.7892 49.4449 43.9759 49.9889 44.3172 50.3196C44.6585 50.6396 45.1225 50.7996 45.7092 50.7996C46.1999 50.7996 46.6159 50.6929 46.9572 50.4796C47.2985 50.2663 47.5385 49.8823 47.6772 49.3276C47.7199 49.1676 47.7785 49.0609 47.8532 49.0076C47.9385 48.9436 48.0505 48.9116 48.1892 48.9116H50.3492C50.4452 48.9116 50.5252 48.9436 50.5892 49.0076C50.6639 49.0716 50.6959 49.1516 50.6852 49.2476C50.6745 49.8449 50.5412 50.3836 50.2852 50.8636C50.0399 51.3329 49.6932 51.7383 49.2452 52.0796C48.7972 52.4103 48.2745 52.6663 47.6772 52.8476C47.0799 53.0183 46.4292 53.1036 45.7252 53.1036ZM56.9436 53.1036C55.9622 53.1036 55.1089 52.9436 54.3836 52.6236C53.6582 52.3036 53.0929 51.8236 52.6876 51.1836C52.2822 50.5329 52.0582 49.7223 52.0156 48.7516C52.0049 48.2929 51.9996 47.8343 51.9996 47.3756C51.9996 46.9063 52.0049 46.4423 52.0156 45.9836C52.0582 45.0236 52.2822 44.2183 52.6876 43.5676C53.1036 42.9063 53.6742 42.4103 54.3996 42.0796C55.1356 41.7489 55.9836 41.5836 56.9436 41.5836C57.9142 41.5836 58.7622 41.7489 59.4876 42.0796C60.2129 42.4103 60.7836 42.9063 61.1996 43.5676C61.6156 44.2183 61.8396 45.0236 61.8716 45.9836C61.8929 46.4423 61.9036 46.9063 61.9036 47.3756C61.9036 47.8343 61.8929 48.2929 61.8716 48.7516C61.8396 49.7223 61.6156 50.5329 61.1996 51.1836C60.7942 51.8236 60.2289 52.3036 59.5036 52.6236C58.7782 52.9436 57.9249 53.1036 56.9436 53.1036ZM56.9436 50.7996C57.5089 50.7996 57.9676 50.6289 58.3196 50.2876C58.6822 49.9463 58.8742 49.4023 58.8956 48.6556C58.9169 48.1863 58.9276 47.7436 58.9276 47.3276C58.9276 46.9116 58.9169 46.4796 58.8956 46.0316C58.8742 45.5303 58.7782 45.1249 58.6076 44.8156C58.4476 44.4956 58.2236 44.2609 57.9356 44.1116C57.6476 43.9623 57.3169 43.8876 56.9436 43.8876C56.5809 43.8876 56.2556 43.9623 55.9676 44.1116C55.6796 44.2609 55.4502 44.4956 55.2796 44.8156C55.1089 45.1249 55.0129 45.5303 54.9916 46.0316C54.9809 46.4796 54.9756 46.9116 54.9756 47.3276C54.9756 47.7436 54.9809 48.1863 54.9916 48.6556C55.0236 49.4023 55.2156 49.9463 55.5676 50.2876C55.9302 50.6289 56.3889 50.7996 56.9436 50.7996ZM63.7102 52.9436C63.5929 52.9436 63.4915 52.9063 63.4062 52.8316C63.3315 52.7463 63.2942 52.6503 63.2942 52.5436V51.4076C63.2942 51.3329 63.3155 51.2209 63.3582 51.0716C63.4009 50.9116 63.5129 50.7623 63.6942 50.6236L65.3582 48.9916C66.2115 48.3409 66.9102 47.7916 67.4542 47.3436C68.0089 46.8849 68.4195 46.4796 68.6862 46.1276C68.9529 45.7756 69.0862 45.4449 69.0862 45.1356C69.0862 44.7729 68.9902 44.4743 68.7982 44.2396C68.6169 43.9943 68.2969 43.8716 67.8382 43.8716C67.5289 43.8716 67.2729 43.9409 67.0702 44.0796C66.8675 44.2076 66.7075 44.3783 66.5902 44.5916C66.4835 44.8049 66.4089 45.0236 66.3662 45.2476C66.3235 45.3863 66.2489 45.4823 66.1422 45.5356C66.0462 45.5889 65.9395 45.6156 65.8222 45.6156H63.8222C63.7262 45.6156 63.6462 45.5836 63.5822 45.5196C63.5182 45.4556 63.4862 45.3756 63.4862 45.2796C63.4969 44.7676 63.6035 44.2876 63.8062 43.8396C64.0195 43.3809 64.3129 42.9809 64.6862 42.6396C65.0702 42.2983 65.5235 42.0316 66.0462 41.8396C66.5795 41.6369 67.1769 41.5356 67.8382 41.5356C68.7449 41.5356 69.5129 41.6849 70.1422 41.9836C70.7822 42.2716 71.2675 42.6769 71.5982 43.1996C71.9289 43.7116 72.0942 44.3143 72.0942 45.0076C72.0942 45.5303 71.9769 46.0209 71.7422 46.4796C71.5182 46.9276 71.1929 47.3596 70.7662 47.7756C70.3502 48.1809 69.8542 48.6023 69.2782 49.0396L67.8062 50.5276H71.9182C72.0355 50.5276 72.1315 50.5649 72.2062 50.6396C72.2915 50.7143 72.3342 50.8103 72.3342 50.9276V52.5436C72.3342 52.6503 72.2915 52.7463 72.2062 52.8316C72.1315 52.9063 72.0355 52.9436 71.9182 52.9436H63.7102ZM45.3593 70.9436C45.2526 70.9436 45.1566 70.9063 45.0713 70.8316C44.9966 70.7463 44.9593 70.6503 44.9593 70.5436V62.9276L42.7673 64.6076C42.6713 64.6823 42.5699 64.7089 42.4633 64.6876C42.3673 64.6663 42.2819 64.6076 42.2073 64.5116L41.2633 63.2796C41.1993 63.1836 41.1726 63.0823 41.1833 62.9756C41.2046 62.8583 41.2686 62.7676 41.3753 62.7036L45.0553 59.8556C45.1193 59.8129 45.1779 59.7863 45.2313 59.7756C45.2953 59.7543 45.3646 59.7436 45.4393 59.7436H47.4393C47.5566 59.7436 47.6526 59.7809 47.7273 59.8556C47.8019 59.9303 47.8393 60.0263 47.8393 60.1436V70.5436C47.8393 70.6503 47.8019 70.7463 47.7273 70.8316C47.6526 70.9063 47.5566 70.9436 47.4393 70.9436H45.3593ZM54.0004 71.1196C52.9977 71.1196 52.1604 70.9649 51.4884 70.6556C50.8164 70.3356 50.3044 69.9249 49.9524 69.4236C49.6111 68.9116 49.4297 68.3623 49.4084 67.7756C49.4084 67.6796 49.4404 67.5996 49.5044 67.5356C49.5684 67.4716 49.6484 67.4396 49.7444 67.4396H51.8884C52.0271 67.4396 52.1337 67.4663 52.2084 67.5196C52.2937 67.5729 52.3577 67.6476 52.4004 67.7436C52.4964 67.9889 52.6244 68.1916 52.7844 68.3516C52.9444 68.5116 53.1257 68.6289 53.3284 68.7036C53.5311 68.7783 53.7604 68.8156 54.0164 68.8156C54.3151 68.8156 54.5924 68.7516 54.8484 68.6236C55.1044 68.4956 55.3071 68.3089 55.4564 68.0636C55.6164 67.8076 55.6964 67.5036 55.6964 67.1516C55.6964 66.8316 55.6217 66.5543 55.4724 66.3196C55.3337 66.0849 55.1364 65.8983 54.8804 65.7596C54.6351 65.6209 54.3471 65.5516 54.0164 65.5516C53.7604 65.5516 53.5524 65.5836 53.3924 65.6476C53.2324 65.7009 53.0991 65.7703 52.9924 65.8556C52.8857 65.9409 52.7897 66.0156 52.7044 66.0796C52.6191 66.1329 52.5231 66.1596 52.4164 66.1596H50.3204C50.2244 66.1596 50.1391 66.1276 50.0644 66.0636C50.0004 65.9889 49.9684 65.9036 49.9684 65.8076L50.5444 60.2236C50.5657 60.0636 50.6244 59.9463 50.7204 59.8716C50.8164 59.7863 50.9337 59.7436 51.0724 59.7436H57.4884C57.6057 59.7436 57.7017 59.7809 57.7764 59.8556C57.8617 59.9303 57.9044 60.0263 57.9044 60.1436V61.6476C57.9044 61.7649 57.8617 61.8609 57.7764 61.9356C57.7017 62.0103 57.6057 62.0476 57.4884 62.0476H52.8484L52.6404 64.1116C52.8751 63.9623 53.1471 63.8343 53.4564 63.7276C53.7764 63.6209 54.2137 63.5676 54.7684 63.5676C55.2697 63.5676 55.7497 63.6583 56.2084 63.8396C56.6777 64.0103 57.0937 64.2556 57.4564 64.5756C57.8297 64.8956 58.1177 65.2796 58.3204 65.7276C58.5337 66.1649 58.6404 66.6609 58.6404 67.2156C58.6404 67.9729 58.4537 68.6449 58.0804 69.2316C57.7177 69.8183 57.1897 70.2823 56.4964 70.6236C55.8031 70.9543 54.9711 71.1196 54.0004 71.1196ZM61.0161 70.9436C60.7708 70.9436 60.6481 70.8369 60.6481 70.6236C60.6481 70.5596 60.6695 70.5009 60.7121 70.4476L68.6161 60.0476C68.6908 59.9516 68.7655 59.8769 68.8401 59.8236C68.9148 59.7703 69.0268 59.7436 69.1761 59.7436H70.3121C70.5575 59.7436 70.6801 59.8503 70.6801 60.0636C70.6801 60.1276 70.6588 60.1863 70.6161 60.2396L62.7121 70.6396C62.6375 70.7356 62.5628 70.8103 62.4881 70.8636C62.4135 70.9169 62.3015 70.9436 62.1521 70.9436H61.0161ZM69.0641 71.0236C68.3388 71.0236 67.7575 70.8316 67.3201 70.4476C66.8935 70.0636 66.6535 69.5516 66.6001 68.9116C66.5895 68.6343 66.5841 68.3889 66.5841 68.1756C66.5841 67.9623 66.5895 67.7063 66.6001 67.4076C66.6428 66.7569 66.8721 66.2396 67.2881 65.8556C67.7148 65.4609 68.3068 65.2636 69.0641 65.2636C69.8321 65.2636 70.4241 65.4609 70.8401 65.8556C71.2561 66.2396 71.4855 66.7569 71.5281 67.4076C71.5495 67.7063 71.5601 67.9623 71.5601 68.1756C71.5601 68.3889 71.5495 68.6343 71.5281 68.9116C71.4855 69.5516 71.2455 70.0636 70.8081 70.4476C70.3708 70.8316 69.7895 71.0236 69.0641 71.0236ZM69.0641 69.6156C69.2455 69.6156 69.3841 69.5783 69.4801 69.5036C69.5868 69.4183 69.6668 69.3169 69.7201 69.1996C69.7735 69.0716 69.8055 68.9436 69.8161 68.8156C69.8375 68.5703 69.8481 68.3463 69.8481 68.1436C69.8481 67.9409 69.8375 67.7223 69.8161 67.4876C69.8055 67.2849 69.7415 67.1036 69.6241 66.9436C69.5175 66.7729 69.3308 66.6876 69.0641 66.6876C68.8081 66.6876 68.6215 66.7729 68.5041 66.9436C68.3975 67.1036 68.3388 67.2849 68.3281 67.4876C68.3175 67.7223 68.3121 67.9409 68.3121 68.1436C68.3121 68.3463 68.3175 68.5703 68.3281 68.8156C68.3388 68.9436 68.3655 69.0716 68.4081 69.1996C68.4615 69.3169 68.5415 69.4183 68.6481 69.5036C68.7548 69.5783 68.8935 69.6156 69.0641 69.6156ZM62.2961 65.3916C61.5601 65.3916 60.9735 65.2049 60.5361 64.8316C60.1095 64.4476 59.8748 63.9356 59.8321 63.2956C59.8108 63.0183 59.8001 62.7729 59.8001 62.5596C59.8108 62.3463 59.8215 62.0903 59.8321 61.7916C59.8641 61.1516 60.0881 60.6396 60.5041 60.2556C60.9308 59.8609 61.5281 59.6636 62.2961 59.6636C63.0641 59.6636 63.6561 59.8609 64.0721 60.2556C64.4881 60.6396 64.7121 61.1516 64.7441 61.7916C64.7655 62.0903 64.7761 62.3463 64.7761 62.5596C64.7761 62.7729 64.7655 63.0183 64.7441 63.2956C64.7121 63.9356 64.4775 64.4476 64.0401 64.8316C63.6028 65.2049 63.0215 65.3916 62.2961 65.3916ZM62.2961 63.9996C62.4668 63.9996 62.6055 63.9623 62.7121 63.8876C62.8188 63.8129 62.8988 63.7169 62.9521 63.5996C63.0055 63.4716 63.0321 63.3436 63.0321 63.2156C63.0535 62.9703 63.0641 62.7463 63.0641 62.5436C63.0641 62.3409 63.0535 62.1223 63.0321 61.8876C63.0215 61.6849 62.9575 61.5036 62.8401 61.3436C62.7335 61.1729 62.5521 61.0876 62.2961 61.0876C62.0295 61.0876 61.8428 61.1729 61.7361 61.3436C61.6295 61.5036 61.5655 61.6849 61.5441 61.8876C61.5335 62.1223 61.5281 62.3409 61.5281 62.5436C61.5281 62.7463 61.5335 62.9703 61.5441 63.2156C61.5655 63.3436 61.5975 63.4716 61.6401 63.5996C61.6828 63.7169 61.7575 63.8129 61.8641 63.8876C61.9708 63.9623 62.1148 63.9996 62.2961 63.9996Z" fill="white"/>
</svg>
