<svg width="114" height="114" viewBox="0 0 114 114" fill="none" xmlns="http://www.w3.org/2000/svg">
<path d="M3.30814 37.8641C7.17411 27.0169 14.2349 17.595 23.5606 10.8393C32.8863 4.08369 44.0396 0.311087 55.5514 0.0184301C67.0632 -0.274227 78.3937 2.92678 88.0507 9.19985C97.7076 15.4729 105.238 24.5239 109.65 35.1606L57 57L3.30814 37.8641Z" fill="white"/>
<circle cx="56.7525" cy="56.8946" r="44.9512" fill="#6AC9E3"/>
<path d="M47.0826 53.0164C46.9653 53.0164 46.8693 52.979 46.7946 52.9044C46.72 52.819 46.6826 52.723 46.6826 52.6164V42.2164C46.6826 42.099 46.72 42.003 46.7946 41.9284C46.8693 41.8537 46.9653 41.8164 47.0826 41.8164H48.7786C48.96 41.8164 49.088 41.859 49.1626 41.9444C49.248 42.019 49.3013 42.0777 49.3226 42.1204L53.2266 48.2644V42.2164C53.2266 42.099 53.264 42.003 53.3386 41.9284C53.4133 41.8537 53.5093 41.8164 53.6266 41.8164H55.5466C55.664 41.8164 55.76 41.8537 55.8346 41.9284C55.9093 42.003 55.9466 42.099 55.9466 42.2164V52.6004C55.9466 52.7177 55.9093 52.819 55.8346 52.9044C55.76 52.979 55.664 53.0164 55.5466 53.0164H53.8346C53.664 53.0164 53.536 52.9737 53.4506 52.8884C53.376 52.803 53.328 52.7444 53.3066 52.7124L49.4026 46.7924V52.6164C49.4026 52.723 49.3653 52.819 49.2906 52.9044C49.216 52.979 49.12 53.0164 49.0026 53.0164H47.0826ZM62.7586 53.1764C61.7773 53.1764 60.924 53.0164 60.1986 52.6964C59.4733 52.3764 58.908 51.8964 58.5026 51.2564C58.0973 50.6057 57.8733 49.795 57.8306 48.8244C57.82 48.3657 57.8146 47.907 57.8146 47.4484C57.8146 46.979 57.82 46.515 57.8306 46.0564C57.8733 45.0964 58.0973 44.291 58.5026 43.6404C58.9186 42.979 59.4893 42.483 60.2146 42.1524C60.9506 41.8217 61.7986 41.6564 62.7586 41.6564C63.7293 41.6564 64.5773 41.8217 65.3026 42.1524C66.028 42.483 66.5986 42.979 67.0146 43.6404C67.4306 44.291 67.6546 45.0964 67.6866 46.0564C67.708 46.515 67.7186 46.979 67.7186 47.4484C67.7186 47.907 67.708 48.3657 67.6866 48.8244C67.6546 49.795 67.4306 50.6057 67.0146 51.2564C66.6093 51.8964 66.044 52.3764 65.3186 52.6964C64.5933 53.0164 63.74 53.1764 62.7586 53.1764ZM62.7586 50.8724C63.324 50.8724 63.7826 50.7017 64.1346 50.3604C64.4973 50.019 64.6893 49.475 64.7106 48.7284C64.732 48.259 64.7426 47.8164 64.7426 47.4004C64.7426 46.9844 64.732 46.5524 64.7106 46.1044C64.6893 45.603 64.5933 45.1977 64.4226 44.8884C64.2626 44.5684 64.0386 44.3337 63.7506 44.1844C63.4626 44.035 63.132 43.9604 62.7586 43.9604C62.396 43.9604 62.0706 44.035 61.7826 44.1844C61.4946 44.3337 61.2653 44.5684 61.0946 44.8884C60.924 45.1977 60.828 45.603 60.8066 46.1044C60.796 46.5524 60.7906 46.9844 60.7906 47.4004C60.7906 47.8164 60.796 48.259 60.8066 48.7284C60.8386 49.475 61.0306 50.019 61.3826 50.3604C61.7453 50.7017 62.204 50.8724 62.7586 50.8724ZM45.3095 71.1764C44.4882 71.1764 43.7788 71.0804 43.1815 70.8884C42.5948 70.6857 42.1148 70.4297 41.7415 70.1204C41.3682 69.8004 41.0908 69.4644 40.9095 69.1124C40.7282 68.7497 40.6322 68.403 40.6215 68.0724C40.6215 67.9764 40.6535 67.8964 40.7175 67.8324C40.7922 67.7684 40.8775 67.7364 40.9735 67.7364H43.0695C43.1868 67.7364 43.2828 67.763 43.3575 67.8164C43.4322 67.859 43.5015 67.9337 43.5655 68.0404C43.6508 68.243 43.7735 68.4084 43.9335 68.5364C44.1042 68.6644 44.3068 68.755 44.5415 68.8084C44.7762 68.851 45.0322 68.8724 45.3095 68.8724C45.8535 68.8724 46.2748 68.7497 46.5735 68.5044C46.8828 68.2484 47.0375 67.9017 47.0375 67.4644C47.0375 67.0057 46.8935 66.6804 46.6055 66.4884C46.3175 66.2857 45.9068 66.1844 45.3735 66.1844H43.5975C43.4802 66.1844 43.3842 66.147 43.3095 66.0724C43.2348 65.9977 43.1975 65.9017 43.1975 65.7844V64.8884C43.1975 64.7604 43.2242 64.6484 43.2775 64.5524C43.3308 64.4564 43.3895 64.387 43.4535 64.3444L46.0775 62.1204H41.6295C41.5228 62.1204 41.4268 62.083 41.3415 62.0084C41.2668 61.9337 41.2295 61.8377 41.2295 61.7204V60.2164C41.2295 60.099 41.2668 60.003 41.3415 59.9284C41.4268 59.8537 41.5228 59.8164 41.6295 59.8164H48.9895C49.1068 59.8164 49.2028 59.8537 49.2775 59.9284C49.3628 60.003 49.4055 60.099 49.4055 60.2164V61.5764C49.4055 61.6937 49.3788 61.8004 49.3255 61.8964C49.2722 61.9817 49.2135 62.051 49.1495 62.1044L46.7175 64.3604L46.8295 64.3924C47.4482 64.467 47.9922 64.627 48.4615 64.8724C48.9415 65.1177 49.3202 65.4697 49.5975 65.9284C49.8748 66.3764 50.0135 66.947 50.0135 67.6404C50.0135 68.3657 49.8055 68.995 49.3895 69.5284C48.9842 70.051 48.4295 70.4564 47.7255 70.7444C47.0215 71.0324 46.2162 71.1764 45.3095 71.1764ZM55.7764 71.1924C54.7737 71.1924 53.9364 71.0377 53.2644 70.7284C52.5924 70.4084 52.0804 69.9977 51.7284 69.4964C51.3871 68.9844 51.2057 68.435 51.1844 67.8484C51.1844 67.7524 51.2164 67.6724 51.2804 67.6084C51.3444 67.5444 51.4244 67.5124 51.5204 67.5124H53.6644C53.8031 67.5124 53.9097 67.539 53.9844 67.5924C54.0697 67.6457 54.1337 67.7204 54.1764 67.8164C54.2724 68.0617 54.4004 68.2644 54.5604 68.4244C54.7204 68.5844 54.9017 68.7017 55.1044 68.7764C55.3071 68.851 55.5364 68.8884 55.7924 68.8884C56.0911 68.8884 56.3684 68.8244 56.6244 68.6964C56.8804 68.5684 57.0831 68.3817 57.2324 68.1364C57.3924 67.8804 57.4724 67.5764 57.4724 67.2244C57.4724 66.9044 57.3977 66.627 57.2484 66.3924C57.1097 66.1577 56.9124 65.971 56.6564 65.8324C56.4111 65.6937 56.1231 65.6244 55.7924 65.6244C55.5364 65.6244 55.3284 65.6564 55.1684 65.7204C55.0084 65.7737 54.8751 65.843 54.7684 65.9284C54.6617 66.0137 54.5657 66.0884 54.4804 66.1524C54.3951 66.2057 54.2991 66.2324 54.1924 66.2324H52.0964C52.0004 66.2324 51.9151 66.2004 51.8404 66.1364C51.7764 66.0617 51.7444 65.9764 51.7444 65.8804L52.3204 60.2964C52.3417 60.1364 52.4004 60.019 52.4964 59.9444C52.5924 59.859 52.7097 59.8164 52.8484 59.8164H59.2644C59.3817 59.8164 59.4777 59.8537 59.5524 59.9284C59.6377 60.003 59.6804 60.099 59.6804 60.2164V61.7204C59.6804 61.8377 59.6377 61.9337 59.5524 62.0084C59.4777 62.083 59.3817 62.1204 59.2644 62.1204H54.6244L54.4164 64.1844C54.6511 64.035 54.9231 63.907 55.2324 63.8004C55.5524 63.6937 55.9897 63.6404 56.5444 63.6404C57.0457 63.6404 57.5257 63.731 57.9844 63.9124C58.4537 64.083 58.8697 64.3284 59.2324 64.6484C59.6057 64.9684 59.8937 65.3524 60.0964 65.8004C60.3097 66.2377 60.4164 66.7337 60.4164 67.2884C60.4164 68.0457 60.2297 68.7177 59.8564 69.3044C59.4937 69.891 58.9657 70.355 58.2724 70.6964C57.5791 71.027 56.7471 71.1924 55.7764 71.1924ZM62.7921 71.0164C62.5468 71.0164 62.4241 70.9097 62.4241 70.6964C62.4241 70.6324 62.4455 70.5737 62.4881 70.5204L70.3921 60.1204C70.4668 60.0244 70.5415 59.9497 70.6161 59.8964C70.6908 59.843 70.8028 59.8164 70.9521 59.8164H72.0881C72.3335 59.8164 72.4561 59.923 72.4561 60.1364C72.4561 60.2004 72.4348 60.259 72.3921 60.3124L64.4881 70.7124C64.4135 70.8084 64.3388 70.883 64.2641 70.9364C64.1895 70.9897 64.0775 71.0164 63.9281 71.0164H62.7921ZM70.8401 71.0964C70.1148 71.0964 69.5335 70.9044 69.0961 70.5204C68.6695 70.1364 68.4295 69.6244 68.3761 68.9844C68.3655 68.707 68.3601 68.4617 68.3601 68.2484C68.3601 68.035 68.3655 67.779 68.3761 67.4804C68.4188 66.8297 68.6481 66.3124 69.0641 65.9284C69.4908 65.5337 70.0828 65.3364 70.8401 65.3364C71.6081 65.3364 72.2001 65.5337 72.6161 65.9284C73.0321 66.3124 73.2615 66.8297 73.3041 67.4804C73.3255 67.779 73.3361 68.035 73.3361 68.2484C73.3361 68.4617 73.3255 68.707 73.3041 68.9844C73.2615 69.6244 73.0215 70.1364 72.5841 70.5204C72.1468 70.9044 71.5655 71.0964 70.8401 71.0964ZM70.8401 69.6884C71.0215 69.6884 71.1601 69.651 71.2561 69.5764C71.3628 69.491 71.4428 69.3897 71.4961 69.2724C71.5495 69.1444 71.5815 69.0164 71.5921 68.8884C71.6135 68.643 71.6241 68.419 71.6241 68.2164C71.6241 68.0137 71.6135 67.795 71.5921 67.5604C71.5815 67.3577 71.5175 67.1764 71.4001 67.0164C71.2935 66.8457 71.1068 66.7604 70.8401 66.7604C70.5841 66.7604 70.3975 66.8457 70.2801 67.0164C70.1735 67.1764 70.1148 67.3577 70.1041 67.5604C70.0935 67.795 70.0881 68.0137 70.0881 68.2164C70.0881 68.419 70.0935 68.643 70.1041 68.8884C70.1148 69.0164 70.1415 69.1444 70.1841 69.2724C70.2375 69.3897 70.3175 69.491 70.4241 69.5764C70.5308 69.651 70.6695 69.6884 70.8401 69.6884ZM64.0721 65.4644C63.3361 65.4644 62.7495 65.2777 62.3121 64.9044C61.8855 64.5204 61.6508 64.0084 61.6081 63.3684C61.5868 63.091 61.5761 62.8457 61.5761 62.6324C61.5868 62.419 61.5975 62.163 61.6081 61.8644C61.6401 61.2244 61.8641 60.7124 62.2801 60.3284C62.7068 59.9337 63.3041 59.7364 64.0721 59.7364C64.8401 59.7364 65.4321 59.9337 65.8481 60.3284C66.2641 60.7124 66.4881 61.2244 66.5201 61.8644C66.5415 62.163 66.5521 62.419 66.5521 62.6324C66.5521 62.8457 66.5415 63.091 66.5201 63.3684C66.4881 64.0084 66.2535 64.5204 65.8161 64.9044C65.3788 65.2777 64.7975 65.4644 64.0721 65.4644ZM64.0721 64.0724C64.2428 64.0724 64.3815 64.035 64.4881 63.9604C64.5948 63.8857 64.6748 63.7897 64.7281 63.6724C64.7815 63.5444 64.8081 63.4164 64.8081 63.2884C64.8295 63.043 64.8401 62.819 64.8401 62.6164C64.8401 62.4137 64.8295 62.195 64.8081 61.9604C64.7975 61.7577 64.7335 61.5764 64.6161 61.4164C64.5095 61.2457 64.3281 61.1604 64.0721 61.1604C63.8055 61.1604 63.6188 61.2457 63.5121 61.4164C63.4055 61.5764 63.3415 61.7577 63.3201 61.9604C63.3095 62.195 63.3041 62.4137 63.3041 62.6164C63.3041 62.819 63.3095 63.043 63.3201 63.2884C63.3415 63.4164 63.3735 63.5444 63.4161 63.6724C63.4588 63.7897 63.5335 63.8857 63.6401 63.9604C63.7468 64.035 63.8908 64.0724 64.0721 64.0724Z" fill="white"/>
</svg>
