<svg width="114" height="114" viewBox="0 0 114 114" fill="none" xmlns="http://www.w3.org/2000/svg">
<path d="M0.881296 47.0155C3.24995 33.7023 10.2745 21.6647 20.7002 13.0532C31.1259 4.44161 44.2736 -0.182954 57.7947 0.00555911C71.3157 0.19408 84.3293 5.1834 94.5109 14.0823C104.692 22.9811 111.379 35.2099 113.375 48.584L57 57L0.881296 47.0155Z" fill="white"/>
<circle cx="56.6138" cy="56.7318" r="44.9512" fill="#08AFDD"/>
<path d="M51.0198 53.0135C50.0171 53.0135 49.1531 52.8482 48.4278 52.5175C47.7024 52.1868 47.1371 51.7015 46.7318 51.0615C46.3371 50.4215 46.1184 49.6268 46.0758 48.6775C46.0651 48.2402 46.0598 47.7708 46.0598 47.2695C46.0598 46.7682 46.0651 46.2882 46.0758 45.8295C46.1184 44.9015 46.3424 44.1122 46.7478 43.4615C47.1531 42.8108 47.7184 42.3202 48.4438 41.9895C49.1691 41.6588 50.0278 41.4935 51.0198 41.4935C51.7238 41.4935 52.3744 41.5842 52.9718 41.7655C53.5691 41.9362 54.0918 42.1922 54.5398 42.5335C54.9878 42.8642 55.3344 43.2695 55.5798 43.7495C55.8358 44.2188 55.9691 44.7522 55.9798 45.3495C55.9904 45.4455 55.9584 45.5255 55.8838 45.5895C55.8198 45.6535 55.7398 45.6855 55.6438 45.6855H53.4838C53.3451 45.6855 53.2384 45.6588 53.1638 45.6055C53.0891 45.5415 53.0251 45.4295 52.9718 45.2695C52.8224 44.7042 52.5771 44.3202 52.2358 44.1175C51.9051 43.9042 51.4944 43.7975 51.0038 43.7975C50.4171 43.7975 49.9531 43.9628 49.6118 44.2935C49.2704 44.6135 49.0838 45.1522 49.0518 45.9095C49.0198 46.7842 49.0198 47.6802 49.0518 48.5975C49.0838 49.3548 49.2704 49.8988 49.6118 50.2295C49.9531 50.5495 50.4171 50.7095 51.0038 50.7095C51.4944 50.7095 51.9104 50.6028 52.2518 50.3895C52.5931 50.1762 52.8331 49.7922 52.9718 49.2375C53.0144 49.0775 53.0731 48.9708 53.1478 48.9175C53.2331 48.8535 53.3451 48.8215 53.4838 48.8215H55.6438C55.7398 48.8215 55.8198 48.8535 55.8838 48.9175C55.9584 48.9815 55.9904 49.0615 55.9798 49.1575C55.9691 49.7548 55.8358 50.2935 55.5798 50.7735C55.3344 51.2428 54.9878 51.6482 54.5398 51.9895C54.0918 52.3202 53.5691 52.5762 52.9718 52.7575C52.3744 52.9282 51.7238 53.0135 51.0198 53.0135ZM62.2381 53.0135C61.2568 53.0135 60.4035 52.8535 59.6781 52.5335C58.9528 52.2135 58.3875 51.7335 57.9821 51.0935C57.5768 50.4428 57.3528 49.6322 57.3101 48.6615C57.2995 48.2028 57.2941 47.7442 57.2941 47.2855C57.2941 46.8162 57.2995 46.3522 57.3101 45.8935C57.3528 44.9335 57.5768 44.1282 57.9821 43.4775C58.3981 42.8162 58.9688 42.3202 59.6941 41.9895C60.4301 41.6588 61.2781 41.4935 62.2381 41.4935C63.2088 41.4935 64.0568 41.6588 64.7821 41.9895C65.5075 42.3202 66.0781 42.8162 66.4941 43.4775C66.9101 44.1282 67.1341 44.9335 67.1661 45.8935C67.1875 46.3522 67.1981 46.8162 67.1981 47.2855C67.1981 47.7442 67.1875 48.2028 67.1661 48.6615C67.1341 49.6322 66.9101 50.4428 66.4941 51.0935C66.0888 51.7335 65.5235 52.2135 64.7981 52.5335C64.0728 52.8535 63.2195 53.0135 62.2381 53.0135ZM62.2381 50.7095C62.8035 50.7095 63.2621 50.5388 63.6141 50.1975C63.9768 49.8562 64.1688 49.3122 64.1901 48.5655C64.2115 48.0962 64.2221 47.6535 64.2221 47.2375C64.2221 46.8215 64.2115 46.3895 64.1901 45.9415C64.1688 45.4402 64.0728 45.0348 63.9021 44.7255C63.7421 44.4055 63.5181 44.1708 63.2301 44.0215C62.9421 43.8722 62.6115 43.7975 62.2381 43.7975C61.8755 43.7975 61.5501 43.8722 61.2621 44.0215C60.9741 44.1708 60.7448 44.4055 60.5741 44.7255C60.4035 45.0348 60.3075 45.4402 60.2861 45.9415C60.2755 46.3895 60.2701 46.8215 60.2701 47.2375C60.2701 47.6535 60.2755 48.0962 60.2861 48.5655C60.3181 49.3122 60.5101 49.8562 60.8621 50.1975C61.2248 50.5388 61.6835 50.7095 62.2381 50.7095ZM44.9687 71.0135C44.1474 71.0135 43.438 70.9175 42.8407 70.7255C42.254 70.5228 41.774 70.2668 41.4007 69.9575C41.0274 69.6375 40.75 69.3015 40.5687 68.9495C40.3874 68.5868 40.2914 68.2402 40.2807 67.9095C40.2807 67.8135 40.3127 67.7335 40.3767 67.6695C40.4514 67.6055 40.5367 67.5735 40.6327 67.5735H42.7287C42.846 67.5735 42.942 67.6002 43.0167 67.6535C43.0914 67.6962 43.1607 67.7708 43.2247 67.8775C43.31 68.0802 43.4327 68.2455 43.5927 68.3735C43.7634 68.5015 43.966 68.5922 44.2007 68.6455C44.4354 68.6882 44.6914 68.7095 44.9687 68.7095C45.5127 68.7095 45.934 68.5868 46.2327 68.3415C46.542 68.0855 46.6967 67.7388 46.6967 67.3015C46.6967 66.8428 46.5527 66.5175 46.2647 66.3255C45.9767 66.1228 45.566 66.0215 45.0327 66.0215H43.2567C43.1394 66.0215 43.0434 65.9842 42.9687 65.9095C42.894 65.8348 42.8567 65.7388 42.8567 65.6215V64.7255C42.8567 64.5975 42.8834 64.4855 42.9367 64.3895C42.99 64.2935 43.0487 64.2242 43.1127 64.1815L45.7367 61.9575H41.2887C41.182 61.9575 41.086 61.9202 41.0007 61.8455C40.926 61.7708 40.8887 61.6748 40.8887 61.5575V60.0535C40.8887 59.9362 40.926 59.8402 41.0007 59.7655C41.086 59.6908 41.182 59.6535 41.2887 59.6535H48.6487C48.766 59.6535 48.862 59.6908 48.9367 59.7655C49.022 59.8402 49.0647 59.9362 49.0647 60.0535V61.4135C49.0647 61.5308 49.038 61.6375 48.9847 61.7335C48.9314 61.8188 48.8727 61.8882 48.8087 61.9415L46.3767 64.1975L46.4887 64.2295C47.1074 64.3042 47.6514 64.4642 48.1207 64.7095C48.6007 64.9548 48.9794 65.3068 49.2567 65.7655C49.534 66.2135 49.6727 66.7842 49.6727 67.4775C49.6727 68.2028 49.4647 68.8322 49.0487 69.3655C48.6434 69.8882 48.0887 70.2935 47.3847 70.5815C46.6807 70.8695 45.8754 71.0135 44.9687 71.0135ZM53.0996 70.8535C53.0036 70.8535 52.9236 70.8215 52.8596 70.7575C52.7956 70.6828 52.7636 70.5975 52.7636 70.5015C52.7636 70.4482 52.7689 70.4055 52.7796 70.3735C52.8009 70.3415 52.8169 70.3148 52.8276 70.2935L55.0836 67.2055C54.9342 67.2375 54.7796 67.2535 54.6196 67.2535C54.1396 67.2215 53.6702 67.1148 53.2116 66.9335C52.7529 66.7415 52.3369 66.4855 51.9636 66.1655C51.6009 65.8348 51.3129 65.4455 51.0996 64.9975C50.8862 64.5495 50.7796 64.0482 50.7796 63.4935C50.7796 62.9815 50.8756 62.4908 51.0676 62.0215C51.2596 61.5415 51.5476 61.1148 51.9316 60.7415C52.3156 60.3575 52.7902 60.0535 53.3556 59.8295C53.9316 59.6055 54.5982 59.4935 55.3556 59.4935C56.1236 59.4935 56.7956 59.5948 57.3716 59.7975C57.9582 59.9895 58.4489 60.2668 58.8436 60.6295C59.2382 60.9815 59.5369 61.3975 59.7396 61.8775C59.9422 62.3468 60.0436 62.8482 60.0436 63.3815C60.0436 63.8722 59.9529 64.3255 59.7716 64.7415C59.6009 65.1575 59.3876 65.5522 59.1316 65.9255C58.8862 66.2882 58.6302 66.6562 58.3636 67.0295L55.8036 70.5335C55.7609 70.5868 55.6969 70.6562 55.6116 70.7415C55.5262 70.8162 55.3982 70.8535 55.2276 70.8535H53.0996ZM55.3876 65.1415C55.7076 65.1415 55.9956 65.0775 56.2516 64.9495C56.5076 64.8108 56.7102 64.6188 56.8596 64.3735C57.0089 64.1282 57.0836 63.8295 57.0836 63.4775C57.0836 63.1255 57.0089 62.8268 56.8596 62.5815C56.7102 62.3255 56.5076 62.1335 56.2516 62.0055C55.9956 61.8668 55.7076 61.7975 55.3876 61.7975C55.0782 61.7975 54.7956 61.8668 54.5396 62.0055C54.2836 62.1335 54.0809 62.3255 53.9316 62.5815C53.7822 62.8268 53.7076 63.1255 53.7076 63.4775C53.7076 63.8295 53.7822 64.1282 53.9316 64.3735C54.0809 64.6188 54.2836 64.8108 54.5396 64.9495C54.7956 65.0775 55.0782 65.1415 55.3876 65.1415ZM62.3576 70.8535C62.1122 70.8535 61.9896 70.7468 61.9896 70.5335C61.9896 70.4695 62.0109 70.4108 62.0536 70.3575L69.9576 59.9575C70.0322 59.8615 70.1069 59.7868 70.1816 59.7335C70.2562 59.6802 70.3682 59.6535 70.5176 59.6535H71.6536C71.8989 59.6535 72.0216 59.7602 72.0216 59.9735C72.0216 60.0375 72.0002 60.0962 71.9576 60.1495L64.0536 70.5495C63.9789 70.6455 63.9042 70.7202 63.8296 70.7735C63.7549 70.8268 63.6429 70.8535 63.4936 70.8535H62.3576ZM70.4056 70.9335C69.6802 70.9335 69.0989 70.7415 68.6616 70.3575C68.2349 69.9735 67.9949 69.4615 67.9416 68.8215C67.9309 68.5442 67.9256 68.2988 67.9256 68.0855C67.9256 67.8722 67.9309 67.6162 67.9416 67.3175C67.9842 66.6668 68.2136 66.1495 68.6296 65.7655C69.0562 65.3708 69.6482 65.1735 70.4056 65.1735C71.1736 65.1735 71.7656 65.3708 72.1816 65.7655C72.5976 66.1495 72.8269 66.6668 72.8696 67.3175C72.8909 67.6162 72.9016 67.8722 72.9016 68.0855C72.9016 68.2988 72.8909 68.5442 72.8696 68.8215C72.8269 69.4615 72.5869 69.9735 72.1496 70.3575C71.7122 70.7415 71.1309 70.9335 70.4056 70.9335ZM70.4056 69.5255C70.5869 69.5255 70.7256 69.4882 70.8216 69.4135C70.9282 69.3282 71.0082 69.2268 71.0616 69.1095C71.1149 68.9815 71.1469 68.8535 71.1576 68.7255C71.1789 68.4802 71.1896 68.2562 71.1896 68.0535C71.1896 67.8508 71.1789 67.6322 71.1576 67.3975C71.1469 67.1948 71.0829 67.0135 70.9656 66.8535C70.8589 66.6828 70.6722 66.5975 70.4056 66.5975C70.1496 66.5975 69.9629 66.6828 69.8456 66.8535C69.7389 67.0135 69.6802 67.1948 69.6696 67.3975C69.6589 67.6322 69.6536 67.8508 69.6536 68.0535C69.6536 68.2562 69.6589 68.4802 69.6696 68.7255C69.6802 68.8535 69.7069 68.9815 69.7496 69.1095C69.8029 69.2268 69.8829 69.3282 69.9896 69.4135C70.0962 69.4882 70.2349 69.5255 70.4056 69.5255ZM63.6376 65.3015C62.9016 65.3015 62.3149 65.1148 61.8776 64.7415C61.4509 64.3575 61.2162 63.8455 61.1736 63.2055C61.1522 62.9282 61.1416 62.6828 61.1416 62.4695C61.1522 62.2562 61.1629 62.0002 61.1736 61.7015C61.2056 61.0615 61.4296 60.5495 61.8456 60.1655C62.2722 59.7708 62.8696 59.5735 63.6376 59.5735C64.4056 59.5735 64.9976 59.7708 65.4136 60.1655C65.8296 60.5495 66.0536 61.0615 66.0856 61.7015C66.1069 62.0002 66.1176 62.2562 66.1176 62.4695C66.1176 62.6828 66.1069 62.9282 66.0856 63.2055C66.0536 63.8455 65.8189 64.3575 65.3816 64.7415C64.9442 65.1148 64.3629 65.3015 63.6376 65.3015ZM63.6376 63.9095C63.8082 63.9095 63.9469 63.8722 64.0536 63.7975C64.1602 63.7228 64.2402 63.6268 64.2936 63.5095C64.3469 63.3815 64.3736 63.2535 64.3736 63.1255C64.3949 62.8802 64.4056 62.6562 64.4056 62.4535C64.4056 62.2508 64.3949 62.0322 64.3736 61.7975C64.3629 61.5948 64.2989 61.4135 64.1816 61.2535C64.0749 61.0828 63.8936 60.9975 63.6376 60.9975C63.3709 60.9975 63.1842 61.0828 63.0776 61.2535C62.9709 61.4135 62.9069 61.5948 62.8856 61.7975C62.8749 62.0322 62.8696 62.2508 62.8696 62.4535C62.8696 62.6562 62.8749 62.8802 62.8856 63.1255C62.9069 63.2535 62.9389 63.3815 62.9816 63.5095C63.0242 63.6268 63.0989 63.7228 63.2056 63.7975C63.3122 63.8722 63.4562 63.9095 63.6376 63.9095Z" fill="white"/>
</svg>
