<svg width="114" height="114" viewBox="0 0 114 114" fill="none" xmlns="http://www.w3.org/2000/svg">
<path d="M39.9292 111.384C26.873 107.285 15.7269 98.6268 8.52708 86.9896C1.32729 75.3524 -1.44561 61.5134 0.714918 48.0006C2.87546 34.4879 9.82521 22.2035 20.2946 13.3914C30.764 4.57926 44.0542 -0.172273 57.7374 0.00476801C71.4207 0.181809 84.5835 5.2756 94.8214 14.3556C105.059 23.4356 111.689 35.8958 113.499 49.4599C115.309 63.024 112.179 76.7866 104.681 88.2337C97.1823 99.6807 85.8159 108.048 72.658 111.807L57 57L39.9292 111.384Z" fill="white"/>
<circle cx="56.7618" cy="56.7679" r="45.2066" fill="#00D5E4"/>
<path d="M46.2511 52.6342C46.1338 52.6342 46.0378 52.5968 45.9631 52.5222C45.8884 52.4368 45.8511 52.3408 45.8511 52.2342V41.8342C45.8511 41.7168 45.8884 41.6208 45.9631 41.5462C46.0378 41.4715 46.1338 41.4342 46.2511 41.4342H50.7311C51.6164 41.4342 52.3844 41.5728 53.0351 41.8502C53.6964 42.1168 54.2084 42.5222 54.5711 43.0662C54.9444 43.6102 55.1311 44.2982 55.1311 45.1302C55.1311 45.9515 54.9444 46.6288 54.5711 47.1622C54.2084 47.6955 53.6964 48.0902 53.0351 48.3462C52.3844 48.6022 51.6164 48.7302 50.7311 48.7302H48.8271V52.2342C48.8271 52.3408 48.7844 52.4368 48.6991 52.5222C48.6244 52.5968 48.5284 52.6342 48.4111 52.6342H46.2511ZM48.7791 46.5222H50.6511C51.1098 46.5222 51.4724 46.4048 51.7391 46.1702C52.0164 45.9355 52.1551 45.5782 52.1551 45.0982C52.1551 44.6928 52.0378 44.3515 51.8031 44.0742C51.5684 43.7968 51.1844 43.6582 50.6511 43.6582H48.7791V46.5222ZM57.0636 52.6342C56.9569 52.6342 56.8609 52.5968 56.7756 52.5222C56.7009 52.4368 56.6636 52.3408 56.6636 52.2342V41.8342C56.6636 41.7168 56.7009 41.6208 56.7756 41.5462C56.8609 41.4715 56.9569 41.4342 57.0636 41.4342H58.7916C58.9729 41.4342 59.1063 41.4822 59.1916 41.5782C59.2769 41.6635 59.3303 41.7328 59.3516 41.7862L62.1676 46.8262L64.9836 41.7862C65.0156 41.7328 65.0689 41.6635 65.1436 41.5782C65.2289 41.4822 65.3623 41.4342 65.5436 41.4342H67.2556C67.3729 41.4342 67.4689 41.4715 67.5436 41.5462C67.6289 41.6208 67.6716 41.7168 67.6716 41.8342V52.2342C67.6716 52.3408 67.6289 52.4368 67.5436 52.5222C67.4689 52.5968 67.3729 52.6342 67.2556 52.6342H65.3516C65.2343 52.6342 65.1329 52.5968 65.0476 52.5222C64.9729 52.4368 64.9356 52.3408 64.9356 52.2342V46.2342L63.1436 49.5782C63.0903 49.6742 63.0209 49.7595 62.9356 49.8342C62.8503 49.9088 62.7329 49.9462 62.5836 49.9462H61.7516C61.6023 49.9462 61.4849 49.9088 61.3996 49.8342C61.3143 49.7595 61.2449 49.6742 61.1916 49.5782L59.3836 46.2342V52.2342C59.3836 52.3408 59.3463 52.4368 59.2716 52.5222C59.1969 52.5968 59.1009 52.6342 58.9836 52.6342H57.0636ZM42.5307 70.6342C42.4347 70.6342 42.3547 70.6022 42.2907 70.5382C42.2267 70.4635 42.1947 70.3782 42.1947 70.2822C42.1947 70.2288 42.2001 70.1862 42.2107 70.1542C42.2321 70.1222 42.2481 70.0955 42.2587 70.0742L44.5147 66.9862C44.3654 67.0182 44.2107 67.0342 44.0507 67.0342C43.5707 67.0022 43.1014 66.8955 42.6427 66.7142C42.1841 66.5222 41.7681 66.2662 41.3947 65.9462C41.0321 65.6155 40.7441 65.2262 40.5307 64.7782C40.3174 64.3302 40.2107 63.8288 40.2107 63.2742C40.2107 62.7622 40.3067 62.2715 40.4987 61.8022C40.6907 61.3222 40.9787 60.8955 41.3627 60.5222C41.7467 60.1382 42.2214 59.8342 42.7867 59.6102C43.3627 59.3862 44.0294 59.2742 44.7867 59.2742C45.5547 59.2742 46.2267 59.3755 46.8027 59.5782C47.3894 59.7702 47.8801 60.0475 48.2747 60.4102C48.6694 60.7622 48.9681 61.1782 49.1707 61.6582C49.3734 62.1275 49.4747 62.6288 49.4747 63.1622C49.4747 63.6528 49.3841 64.1062 49.2027 64.5222C49.0321 64.9382 48.8187 65.3328 48.5627 65.7062C48.3174 66.0688 48.0614 66.4368 47.7947 66.8102L45.2347 70.3142C45.1921 70.3675 45.1281 70.4368 45.0427 70.5222C44.9574 70.5968 44.8294 70.6342 44.6587 70.6342H42.5307ZM44.8187 64.9222C45.1387 64.9222 45.4267 64.8582 45.6827 64.7302C45.9387 64.5915 46.1414 64.3995 46.2907 64.1542C46.4401 63.9088 46.5147 63.6102 46.5147 63.2582C46.5147 62.9062 46.4401 62.6075 46.2907 62.3622C46.1414 62.1062 45.9387 61.9142 45.6827 61.7862C45.4267 61.6475 45.1387 61.5782 44.8187 61.5782C44.5094 61.5782 44.2267 61.6475 43.9707 61.7862C43.7147 61.9142 43.5121 62.1062 43.3627 62.3622C43.2134 62.6075 43.1387 62.9062 43.1387 63.2582C43.1387 63.6102 43.2134 63.9088 43.3627 64.1542C43.5121 64.3995 43.7147 64.5915 43.9707 64.7302C44.2267 64.8582 44.5094 64.9222 44.8187 64.9222ZM55.4207 70.7942C54.6527 70.7942 53.9861 70.6875 53.4207 70.4742C52.8661 70.2502 52.4021 69.9462 52.0287 69.5622C51.6554 69.1782 51.3727 68.7302 51.1807 68.2182C50.9887 67.7062 50.8767 67.1568 50.8447 66.5702C50.8341 66.2822 50.8234 65.9568 50.8127 65.5942C50.8127 65.2208 50.8127 64.8475 50.8127 64.4742C50.8234 64.0902 50.8341 63.7488 50.8447 63.4502C50.8767 62.8635 50.9887 62.3195 51.1807 61.8182C51.3834 61.3062 51.6714 60.8635 52.0447 60.4902C52.4287 60.1062 52.8981 59.8075 53.4527 59.5942C54.0181 59.3808 54.6741 59.2742 55.4207 59.2742C56.1781 59.2742 56.8341 59.3808 57.3887 59.5942C57.9541 59.8075 58.4234 60.1062 58.7967 60.4902C59.1701 60.8635 59.4581 61.3062 59.6607 61.8182C59.8634 62.3195 59.9807 62.8635 60.0127 63.4502C60.0234 63.7488 60.0287 64.0902 60.0287 64.4742C60.0394 64.8475 60.0394 65.2208 60.0287 65.5942C60.0287 65.9568 60.0234 66.2822 60.0127 66.5702C59.9807 67.1568 59.8634 67.7062 59.6607 68.2182C59.4687 68.7302 59.1861 69.1782 58.8127 69.5622C58.4501 69.9462 57.9861 70.2502 57.4207 70.4742C56.8661 70.6875 56.1994 70.7942 55.4207 70.7942ZM55.4207 68.4742C55.9754 68.4742 56.3754 68.2982 56.6207 67.9462C56.8767 67.5835 57.0101 67.0982 57.0207 66.4902C57.0421 66.1808 57.0527 65.8555 57.0527 65.5142C57.0634 65.1728 57.0634 64.8315 57.0527 64.4902C57.0527 64.1488 57.0421 63.8342 57.0207 63.5462C57.0101 62.9595 56.8767 62.4848 56.6207 62.1222C56.3754 61.7595 55.9754 61.5728 55.4207 61.5622C54.8767 61.5728 54.4767 61.7595 54.2207 62.1222C53.9754 62.4848 53.8421 62.9595 53.8207 63.5462C53.8207 63.8342 53.8154 64.1488 53.8047 64.4902C53.8047 64.8315 53.8047 65.1728 53.8047 65.5142C53.8154 65.8555 53.8207 66.1808 53.8207 66.4902C53.8421 67.0982 53.9807 67.5835 54.2367 67.9462C54.4927 68.2982 54.8874 68.4742 55.4207 68.4742ZM62.6637 70.6342C62.4184 70.6342 62.2957 70.5275 62.2957 70.3142C62.2957 70.2502 62.3171 70.1915 62.3597 70.1382L70.2637 59.7382C70.3384 59.6422 70.4131 59.5675 70.4877 59.5142C70.5624 59.4608 70.6744 59.4342 70.8237 59.4342H71.9597C72.2051 59.4342 72.3277 59.5408 72.3277 59.7542C72.3277 59.8182 72.3064 59.8768 72.2637 59.9302L64.3597 70.3302C64.2851 70.4262 64.2104 70.5008 64.1357 70.5542C64.0611 70.6075 63.9491 70.6342 63.7997 70.6342H62.6637ZM70.7117 70.7142C69.9864 70.7142 69.4051 70.5222 68.9677 70.1382C68.5411 69.7542 68.3011 69.2422 68.2477 68.6022C68.2371 68.3248 68.2317 68.0795 68.2317 67.8662C68.2317 67.6528 68.2371 67.3968 68.2477 67.0982C68.2904 66.4475 68.5197 65.9302 68.9357 65.5462C69.3624 65.1515 69.9544 64.9542 70.7117 64.9542C71.4797 64.9542 72.0717 65.1515 72.4877 65.5462C72.9037 65.9302 73.1331 66.4475 73.1757 67.0982C73.1971 67.3968 73.2077 67.6528 73.2077 67.8662C73.2077 68.0795 73.1971 68.3248 73.1757 68.6022C73.1331 69.2422 72.8931 69.7542 72.4557 70.1382C72.0184 70.5222 71.4371 70.7142 70.7117 70.7142ZM70.7117 69.3062C70.8931 69.3062 71.0317 69.2688 71.1277 69.1942C71.2344 69.1088 71.3144 69.0075 71.3677 68.8902C71.4211 68.7622 71.4531 68.6342 71.4637 68.5062C71.4851 68.2608 71.4957 68.0368 71.4957 67.8342C71.4957 67.6315 71.4851 67.4128 71.4637 67.1782C71.4531 66.9755 71.3891 66.7942 71.2717 66.6342C71.1651 66.4635 70.9784 66.3782 70.7117 66.3782C70.4557 66.3782 70.2691 66.4635 70.1517 66.6342C70.0451 66.7942 69.9864 66.9755 69.9757 67.1782C69.9651 67.4128 69.9597 67.6315 69.9597 67.8342C69.9597 68.0368 69.9651 68.2608 69.9757 68.5062C69.9864 68.6342 70.0131 68.7622 70.0557 68.8902C70.1091 69.0075 70.1891 69.1088 70.2957 69.1942C70.4024 69.2688 70.5411 69.3062 70.7117 69.3062ZM63.9437 65.0822C63.2077 65.0822 62.6211 64.8955 62.1837 64.5222C61.7571 64.1382 61.5224 63.6262 61.4797 62.9862C61.4584 62.7088 61.4477 62.4635 61.4477 62.2502C61.4584 62.0368 61.4691 61.7808 61.4797 61.4822C61.5117 60.8422 61.7357 60.3302 62.1517 59.9462C62.5784 59.5515 63.1757 59.3542 63.9437 59.3542C64.7117 59.3542 65.3037 59.5515 65.7197 59.9462C66.1357 60.3302 66.3597 60.8422 66.3917 61.4822C66.4131 61.7808 66.4237 62.0368 66.4237 62.2502C66.4237 62.4635 66.4131 62.7088 66.3917 62.9862C66.3597 63.6262 66.1251 64.1382 65.6877 64.5222C65.2504 64.8955 64.6691 65.0822 63.9437 65.0822ZM63.9437 63.6902C64.1144 63.6902 64.2531 63.6528 64.3597 63.5782C64.4664 63.5035 64.5464 63.4075 64.5997 63.2902C64.6531 63.1622 64.6797 63.0342 64.6797 62.9062C64.7011 62.6608 64.7117 62.4368 64.7117 62.2342C64.7117 62.0315 64.7011 61.8128 64.6797 61.5782C64.6691 61.3755 64.6051 61.1942 64.4877 61.0342C64.3811 60.8635 64.1997 60.7782 63.9437 60.7782C63.6771 60.7782 63.4904 60.8635 63.3837 61.0342C63.2771 61.1942 63.2131 61.3755 63.1917 61.5782C63.1811 61.8128 63.1757 62.0315 63.1757 62.2342C63.1757 62.4368 63.1811 62.6608 63.1917 62.9062C63.2131 63.0342 63.2451 63.1622 63.2877 63.2902C63.3304 63.4075 63.4051 63.5035 63.5117 63.5782C63.6184 63.6528 63.7624 63.6902 63.9437 63.6902Z" fill="white"/>
</svg>
