<svg width="239" height="239" viewBox="0 0 239 239" fill="none" xmlns="http://www.w3.org/2000/svg">
<path d="M216.255 119.937L230.413 120.757L230.193 124.564L227.722 124.421L227.714 124.568C228.578 124.877 229.216 125.349 229.629 125.983C230.049 126.618 230.236 127.332 230.19 128.125C230.178 128.321 230.154 128.532 230.116 128.758C230.078 128.984 230.033 129.182 229.98 129.352L226.496 129.15C226.562 128.969 226.626 128.716 226.688 128.393C226.749 128.07 226.788 127.773 226.804 127.503C226.837 126.925 226.741 126.402 226.516 125.932C226.296 125.47 225.972 125.093 225.545 124.803C225.118 124.52 224.615 124.361 224.038 124.328L216.028 123.864L216.255 119.937Z" fill="white"/>
<path d="M214.04 137.929C214.335 136.5 214.879 135.33 215.67 134.419C216.467 133.515 217.456 132.896 218.637 132.562C219.825 132.229 221.151 132.214 222.616 132.517C224.044 132.812 225.241 133.348 226.205 134.126C227.17 134.903 227.849 135.858 228.244 136.989C228.638 138.126 228.694 139.376 228.412 140.738C228.223 141.654 227.899 142.477 227.44 143.205C226.987 143.941 226.406 144.544 225.7 145.014C224.992 145.49 224.16 145.802 223.206 145.951C222.257 146.101 221.192 146.053 220.011 145.809L218.953 145.591L221.376 133.863L223.763 134.356L222.089 142.458C222.644 142.573 223.16 142.554 223.638 142.401C224.115 142.248 224.519 141.983 224.849 141.605C225.183 141.234 225.408 140.768 225.524 140.207C225.645 139.623 225.616 139.076 225.438 138.568C225.265 138.067 224.979 137.643 224.579 137.297C224.185 136.952 223.715 136.719 223.167 136.6L220.898 136.131C220.211 135.989 219.591 135.993 219.038 136.143C218.484 136.298 218.023 136.583 217.655 136.998C217.286 137.412 217.035 137.941 216.902 138.586C216.814 139.014 216.793 139.418 216.84 139.799C216.887 140.18 217.005 140.521 217.194 140.824C217.383 141.127 217.638 141.381 217.961 141.586L216.989 145.1C216.171 144.742 215.5 144.217 214.977 143.525C214.458 142.839 214.112 142.02 213.938 141.066C213.769 140.12 213.803 139.074 214.04 137.929Z" fill="white"/>
<path d="M209.982 152.661C210.383 151.661 211.003 150.859 211.843 150.254C212.686 149.657 213.705 149.323 214.901 149.252C216.1 149.189 217.433 149.452 218.901 150.041C220.41 150.646 221.566 151.392 222.371 152.279C223.182 153.168 223.674 154.114 223.848 155.119C224.026 156.132 223.921 157.121 223.533 158.087C223.238 158.824 222.866 159.387 222.417 159.778C221.972 160.176 221.503 160.453 221.011 160.606C220.521 160.768 220.067 160.858 219.649 160.876L219.604 160.987L226.203 163.634L224.742 167.276L207.192 160.237L208.636 156.638L210.744 157.483L210.806 157.329C210.509 157.011 210.243 156.623 210.009 156.164C209.779 155.713 209.646 155.193 209.611 154.602C209.574 154.016 209.698 153.37 209.982 152.661ZM212.423 154.983C212.187 155.572 212.147 156.133 212.305 156.667C212.465 157.209 212.793 157.705 213.289 158.156C213.782 158.613 214.42 158.998 215.203 159.312C215.986 159.626 216.709 159.79 217.373 159.804C218.037 159.818 218.609 159.683 219.088 159.398C219.567 159.112 219.925 158.675 220.161 158.087C220.402 157.487 220.441 156.916 220.281 156.374C220.12 155.832 219.794 155.34 219.302 154.897C218.809 154.454 218.183 154.081 217.423 153.776C216.658 153.469 215.939 153.303 215.265 153.278C214.596 153.262 214.014 153.39 213.52 153.662C213.029 153.943 212.663 154.383 212.423 154.983Z" fill="white"/>
<path d="M205.807 174.909L212.725 179.205L210.651 182.547L198.602 175.066L200.594 171.858L202.783 173.216L202.861 173.091C202.324 172.381 202.037 171.576 202.001 170.677C201.962 169.783 202.223 168.884 202.785 167.979C203.285 167.174 203.908 166.579 204.654 166.195C205.4 165.81 206.217 165.655 207.106 165.728C207.992 165.807 208.907 166.136 209.851 166.716L217.523 171.479L215.448 174.82L208.373 170.427C207.658 169.991 206.978 169.833 206.331 169.953C205.684 170.073 205.164 170.449 204.771 171.082C204.521 171.484 204.379 171.918 204.344 172.382C204.315 172.849 204.417 173.304 204.65 173.745C204.879 174.192 205.265 174.58 205.807 174.909Z" fill="white"/>
<path d="M192.135 182.593C193.093 181.501 194.148 180.765 195.301 180.384C196.454 180.012 197.629 179.978 198.827 180.284C200.021 180.594 201.157 181.222 202.235 182.167C203.327 183.125 204.1 184.176 204.555 185.319C205.01 186.472 205.126 187.642 204.902 188.83C204.684 190.022 204.102 191.157 203.156 192.235C202.34 193.165 201.457 193.832 200.507 194.234C199.556 194.637 198.597 194.774 197.629 194.645C196.661 194.517 195.746 194.112 194.886 193.431L197.333 190.641C197.935 191.029 198.545 191.196 199.166 191.142C199.786 191.097 200.334 190.804 200.809 190.262C201.211 189.804 201.437 189.294 201.487 188.733C201.538 188.18 201.411 187.602 201.106 186.998C200.8 186.394 200.312 185.798 199.641 185.21C198.96 184.613 198.301 184.198 197.662 183.965C197.019 183.737 196.422 183.684 195.872 183.808C195.322 183.931 194.845 184.222 194.444 184.68C194.147 185.018 193.951 185.382 193.854 185.772C193.754 186.167 193.758 186.568 193.868 186.975C193.978 187.391 194.196 187.791 194.522 188.175L192.075 190.966C191.301 190.205 190.778 189.354 190.507 188.412C190.237 187.479 190.233 186.513 190.494 185.514C190.756 184.516 191.303 183.542 192.135 182.593Z" fill="white"/>
<path d="M181.038 193.462C182.166 192.537 183.324 191.969 184.512 191.758C185.7 191.555 186.858 191.696 187.987 192.179C189.12 192.666 190.161 193.488 191.11 194.645C192.035 195.772 192.629 196.942 192.89 198.152C193.151 199.363 193.08 200.533 192.675 201.661C192.267 202.793 191.525 203.8 190.449 204.682C189.726 205.276 188.957 205.712 188.142 205.99C187.327 206.277 186.497 206.381 185.652 206.303C184.802 206.228 183.959 205.948 183.123 205.463C182.291 204.983 181.493 204.277 180.727 203.344L180.042 202.509L189.299 194.912L190.845 196.797L184.45 202.045C184.81 202.483 185.223 202.792 185.691 202.974C186.158 203.155 186.639 203.203 187.133 203.116C187.626 203.038 188.094 202.817 188.537 202.454C188.998 202.075 189.319 201.632 189.501 201.125C189.681 200.627 189.725 200.117 189.631 199.596C189.542 199.08 189.323 198.604 188.972 198.167L187.502 196.375C187.057 195.833 186.572 195.446 186.048 195.215C185.519 194.988 184.982 194.92 184.435 195.011C183.888 195.101 183.36 195.355 182.851 195.773C182.513 196.05 182.243 196.352 182.04 196.677C181.837 197.003 181.714 197.343 181.671 197.697C181.627 198.051 181.666 198.41 181.788 198.771L178.824 200.894C178.412 200.101 178.22 199.271 178.249 198.403C178.277 197.544 178.523 196.689 178.987 195.839C179.45 194.996 180.134 194.204 181.038 193.462Z" fill="white"/>
<path d="M168.707 202.304C169.646 201.777 170.632 201.541 171.666 201.596C172.697 201.66 173.7 202.039 174.676 202.734C175.649 203.437 176.523 204.478 177.297 205.857C178.093 207.274 178.526 208.581 178.597 209.776C178.671 210.977 178.461 212.023 177.966 212.915C177.469 213.815 176.767 214.52 175.86 215.029C175.167 215.417 174.524 215.623 173.93 215.646C173.333 215.677 172.795 215.599 172.314 215.409C171.832 215.228 171.422 215.014 171.085 214.765L170.98 214.824L174.46 221.024L171.038 222.944L161.783 206.455L165.164 204.557L166.276 206.538L166.421 206.456C166.389 206.022 166.426 205.554 166.531 205.05C166.634 204.554 166.858 204.065 167.201 203.583C167.539 203.104 168.041 202.678 168.707 202.304ZM169.152 205.644C168.599 205.954 168.216 206.366 168.004 206.881C167.789 207.404 167.733 207.996 167.837 208.658C167.935 209.323 168.19 210.023 168.603 210.759C169.016 211.494 169.476 212.075 169.984 212.503C170.493 212.931 171.023 213.184 171.575 213.262C172.127 213.34 172.68 213.224 173.233 212.914C173.796 212.598 174.185 212.178 174.4 211.655C174.615 211.132 174.669 210.544 174.564 209.89C174.458 209.237 174.205 208.553 173.804 207.839C173.4 207.12 172.944 206.54 172.435 206.098C171.924 205.665 171.39 205.4 170.834 205.303C170.276 205.214 169.715 205.327 169.152 205.644Z" fill="white"/>
<path d="M146.653 226.938L145.837 224.098L154.249 221.681L155.065 224.52L146.653 226.938ZM149.223 211.443L153.423 226.059C153.707 227.047 153.75 227.921 153.552 228.683C153.349 229.446 152.957 230.087 152.376 230.606C151.795 231.125 151.075 231.508 150.218 231.754C149.638 231.921 149.096 232.029 148.591 232.078C148.08 232.128 147.696 232.152 147.439 232.149L147.298 229.116C147.459 229.12 147.656 229.112 147.886 229.091C148.111 229.071 148.336 229.029 148.561 228.964C149.117 228.804 149.467 228.563 149.611 228.24C149.757 227.922 149.764 227.533 149.631 227.071L145.452 212.527L149.223 211.443Z" fill="white"/>
<path d="M131.564 221.451L132.69 229.516L128.795 230.06L126.834 216.014L130.574 215.492L130.93 218.043L131.077 218.023C131.279 217.156 131.714 216.421 132.382 215.818C133.043 215.216 133.902 214.841 134.956 214.694C135.895 214.563 136.751 214.661 137.524 214.988C138.297 215.315 138.939 215.844 139.451 216.574C139.957 217.306 140.29 218.219 140.449 219.316L141.697 228.259L137.802 228.803L136.651 220.554C136.529 219.726 136.215 219.102 135.709 218.682C135.202 218.261 134.581 218.103 133.843 218.206C133.374 218.271 132.949 218.439 132.571 218.709C132.193 218.986 131.909 219.355 131.719 219.817C131.522 220.279 131.471 220.824 131.564 221.451Z" fill="white"/>
<path d="M116.535 215.828C117.993 215.878 119.237 216.217 120.269 216.844C121.294 217.477 122.07 218.348 122.599 219.457C123.126 220.571 123.364 221.876 123.313 223.371C123.262 224.829 122.934 226.099 122.33 227.18C121.726 228.262 120.9 229.092 119.851 229.671C118.796 230.251 117.573 230.516 116.183 230.468C115.248 230.435 114.383 230.254 113.588 229.925C112.786 229.601 112.094 229.131 111.512 228.513C110.923 227.895 110.476 227.128 110.169 226.212C109.862 225.303 109.729 224.245 109.771 223.039L109.809 221.959L121.777 222.375L121.692 224.811L113.424 224.524C113.405 225.09 113.51 225.596 113.741 226.041C113.972 226.486 114.301 226.839 114.73 227.101C115.152 227.368 115.648 227.511 116.221 227.531C116.817 227.552 117.351 227.432 117.822 227.171C118.287 226.916 118.656 226.563 118.931 226.11C119.205 225.664 119.355 225.161 119.38 224.602L119.461 222.286C119.485 221.584 119.377 220.974 119.136 220.454C118.89 219.935 118.531 219.528 118.061 219.234C117.591 218.941 117.027 218.783 116.368 218.76C115.932 218.745 115.53 218.792 115.162 218.903C114.795 219.013 114.478 219.187 114.211 219.424C113.944 219.661 113.737 219.956 113.589 220.308L109.962 219.941C110.177 219.074 110.582 218.325 111.176 217.693C111.765 217.066 112.514 216.587 113.425 216.256C114.329 215.93 115.366 215.787 116.535 215.828Z" fill="white"/>
<path d="M99.2384 233.347L102.282 214.685L106.164 215.318L103.12 233.98L99.2384 233.347Z" fill="white"/>
<path d="M84.4955 209.474C85.8497 210 86.9032 210.739 87.656 211.691C88.4008 212.647 88.835 213.74 88.9586 214.97C89.0764 216.197 88.8758 217.48 88.3569 218.817C87.8313 220.171 87.1092 221.257 86.1906 222.076C85.264 222.898 84.2045 223.408 83.012 223.606C81.8173 223.809 80.5514 223.651 79.2144 223.132C78.061 222.685 77.1324 222.083 76.4285 221.328C75.7246 220.573 75.2671 219.718 75.0561 218.765C74.8452 217.812 74.912 216.814 75.2568 215.773L78.717 217.116C78.5584 217.813 78.6107 218.444 78.8737 219.009C79.1287 219.576 79.5919 219.991 80.2633 220.251C80.8314 220.472 81.3878 220.509 81.9327 220.364C82.4697 220.223 82.9694 219.905 83.4318 219.411C83.8942 218.917 84.2869 218.254 84.6098 217.422C84.9372 216.578 85.1008 215.817 85.1007 215.136C85.0948 214.454 84.9397 213.876 84.6353 213.401C84.331 212.926 83.8947 212.579 83.3266 212.358C82.9077 212.196 82.4985 212.136 82.0988 212.179C81.6935 212.219 81.3183 212.361 80.9733 212.604C80.6203 212.85 80.3192 213.192 80.07 213.63L76.6098 212.287C77.0591 211.299 77.6798 210.516 78.4717 209.939C79.2557 209.365 80.1615 209.03 81.1893 208.934C82.2171 208.837 83.3191 209.018 84.4955 209.474Z" fill="white"/>
<path d="M70.5677 202.807C71.7999 203.541 72.7095 204.438 73.2966 205.497C73.8753 206.558 74.1275 207.704 74.0532 208.935C73.9759 210.172 73.5654 211.414 72.822 212.662C72.0722 213.92 71.1737 214.875 70.1265 215.527C69.0761 216.183 67.9481 216.507 66.7426 216.499C65.5286 216.492 64.3055 216.121 63.0734 215.387C61.8413 214.653 60.9359 213.756 60.3572 212.695C59.7701 211.636 59.5152 210.488 59.5926 209.252C59.6669 208.02 60.0788 206.776 60.8286 205.517C61.572 204.269 62.469 203.317 63.5194 202.66C64.5666 202.008 65.6972 201.686 66.9112 201.693C68.1168 201.702 69.3356 202.073 70.5677 202.807ZM68.9925 205.415C68.432 205.081 67.8695 204.961 67.305 205.055C66.7374 205.154 66.193 205.424 65.6719 205.866C65.1454 206.305 64.6712 206.878 64.249 207.587C63.8269 208.295 63.5483 208.986 63.4132 209.657C63.2728 210.326 63.2942 210.934 63.4775 211.48C63.6608 212.026 64.0327 212.466 64.5933 212.8C65.1591 213.137 65.7311 213.259 66.3093 213.167C66.8822 213.071 67.4319 212.804 67.9583 212.365C68.4794 211.923 68.9511 211.348 69.3732 210.639C69.7953 209.931 70.0766 209.242 70.217 208.574C70.3521 207.902 70.3254 207.291 70.1368 206.742C69.9398 206.194 69.5583 205.752 68.9925 205.415Z" fill="white"/>
<path d="M53.5394 201.453L58.8552 195.211L61.8497 197.761L52.6548 208.558L49.8009 206.128L51.4231 204.223L51.2966 204.115C50.5228 204.539 49.6991 204.695 48.8255 204.582C47.9479 204.473 47.1084 204.077 46.307 203.395C45.5572 202.756 45.0432 202.036 44.7649 201.233C44.4866 200.43 44.4522 199.592 44.6617 198.719C44.8673 197.851 45.3272 196.998 46.0416 196.159L51.8962 189.284L54.8907 191.835L49.491 198.175C48.9236 198.832 48.6533 199.491 48.6802 200.153C48.703 200.819 49.0143 201.407 49.6142 201.918C50.0172 202.261 50.4472 202.478 50.9041 202.568C51.3564 202.654 51.8109 202.604 52.2676 202.419C52.7157 202.235 53.1396 201.913 53.5394 201.453Z" fill="white"/>
<path d="M34.0486 184.441L36.5425 187.048C36.3472 187.293 36.2211 187.573 36.1642 187.887C36.1026 188.205 36.1227 188.539 36.2244 188.888C36.3175 189.237 36.5111 189.585 36.8052 189.933C37.1986 190.398 37.6291 190.707 38.0967 190.86C38.5597 191.016 38.9533 190.958 39.2777 190.684C39.5362 190.465 39.6674 190.177 39.6712 189.819C39.6749 189.461 39.5183 188.985 39.2012 188.391L37.939 186.097C37.2651 184.861 36.9493 183.782 36.9917 182.859C37.0341 181.937 37.4454 181.146 38.2257 180.486C38.9355 179.886 39.7352 179.569 40.6248 179.534C41.5103 179.495 42.4095 179.71 43.3223 180.18C44.2265 180.649 45.0759 181.353 45.8707 182.293C47.0827 183.727 47.7498 185.122 47.8721 186.477C47.9857 187.832 47.587 189.019 46.676 190.039L44.0233 187.216C44.385 186.757 44.536 186.259 44.4762 185.721C44.4118 185.187 44.153 184.652 43.7 184.116C43.255 183.59 42.7963 183.252 42.3239 183.103C41.8429 182.954 41.4382 183.014 41.1099 183.283C40.8412 183.518 40.7153 183.822 40.7321 184.195C40.7442 184.572 40.902 185.035 41.2053 185.584L42.4172 187.776C43.0997 189.012 43.3987 190.109 43.314 191.068C43.2254 192.021 42.7768 192.84 41.9683 193.523C41.2726 194.111 40.5143 194.43 39.6934 194.479C38.8685 194.523 38.0297 194.318 37.1769 193.862C36.3201 193.401 35.5003 192.708 34.7175 191.782C33.5611 190.414 32.9402 189.093 32.8547 187.819C32.7653 186.541 33.1633 185.415 34.0486 184.441Z" fill="white"/>
<path d="M29.6389 170.264L22.6427 174.432L20.6298 171.053L32.8135 163.795L34.7462 167.039L32.5331 168.357L32.6087 168.484C33.4864 168.334 34.3327 168.45 35.1475 168.831C35.9591 169.207 36.6374 169.853 37.1824 170.768C37.6676 171.582 37.9093 172.409 37.9077 173.248C37.9061 174.087 37.6682 174.885 37.194 175.64C36.7166 176.39 36.0035 177.051 35.0548 177.624L27.2972 182.245L25.2842 178.866L32.439 174.604C33.155 174.17 33.6085 173.638 33.7994 173.009C33.9904 172.379 33.8953 171.744 33.5141 171.105C33.2715 170.697 32.9522 170.372 32.556 170.128C32.1546 169.887 31.7042 169.768 31.2049 169.772C30.7024 169.77 30.1804 169.934 29.6389 170.264Z" fill="white"/>
<path d="M30.9774 161.229L17.5557 165.809L16.345 162.262L18.713 161.453L18.6593 161.296C17.7774 161.285 16.998 161.031 16.3209 160.533C15.6439 160.036 15.1503 159.333 14.8401 158.424C14.526 157.504 14.4887 156.642 14.7282 155.838C14.9619 155.036 15.4323 154.394 16.1393 153.912L16.0916 153.773C15.2292 153.761 14.4457 153.476 13.7409 152.916C13.0284 152.353 12.5041 151.579 12.1681 150.595C11.7406 149.342 11.7927 148.19 12.3244 147.137C12.8483 146.08 13.8384 145.303 15.2947 144.806L24.3211 141.725L25.5886 145.439L17.2961 148.269C16.5505 148.523 16.0589 148.912 15.8212 149.436C15.5836 149.959 15.5662 150.518 15.769 151.112C15.9996 151.788 16.395 152.241 16.9554 152.473C17.5098 152.707 18.1366 152.704 18.8356 152.465L27.032 149.668L28.2636 153.277L19.8925 156.134C19.2343 156.359 18.7746 156.727 18.5135 157.239C18.2505 157.745 18.2233 158.304 18.4321 158.915C18.5732 159.329 18.8053 159.666 19.1284 159.926C19.4436 160.183 19.8204 160.344 20.2588 160.409C20.6915 160.476 21.1553 160.425 21.6505 160.256L29.707 157.506L30.9774 161.229Z" fill="white"/>
<path d="M28.983 137.694L9.6132 139.944L9.16581 136.092L11.532 135.817L11.5118 135.643C11.1128 135.516 10.6988 135.313 10.2699 135.034C9.83412 134.75 9.45425 134.361 9.13026 133.865C8.79945 133.365 8.58825 132.72 8.49664 131.931C8.37733 130.904 8.53628 129.925 8.97349 128.994C9.40458 128.064 10.128 127.277 11.1437 126.632C12.1534 125.988 13.4652 125.573 15.0794 125.385C16.6507 125.203 18.007 125.302 19.1481 125.684C20.2825 126.06 21.1783 126.65 21.8355 127.454C22.4859 128.252 22.8732 129.186 22.9975 130.256C23.0856 131.014 23.0352 131.674 22.8463 132.235C22.6567 132.79 22.3918 133.258 22.0518 133.638C21.7057 134.019 21.3473 134.321 20.9765 134.544L20.9904 134.663L28.5292 133.787L28.983 137.694ZM16.2126 135.301C17.0502 135.204 17.7674 135.003 18.364 134.698C18.9607 134.394 19.4077 134.001 19.7051 133.52C19.9963 133.04 20.1054 132.485 20.0323 131.856C19.9584 131.22 19.7217 130.702 19.322 130.302C18.9163 129.903 18.3884 129.627 17.7385 129.473C17.0817 129.314 16.3437 129.282 15.5244 129.377C14.7112 129.471 14.009 129.667 13.4178 129.965C12.8265 130.263 12.3822 130.653 12.0848 131.133C11.7874 131.614 11.676 132.175 11.7506 132.817C11.8244 133.453 12.0551 133.972 12.4425 134.373C12.8292 134.768 13.3448 135.046 13.9893 135.207C14.6338 135.367 15.3749 135.399 16.2126 135.301Z" fill="white"/>
<path d="M8.12994 112.098L11.0827 112.201L10.7861 120.736L7.83335 120.633L8.12994 112.098ZM4.505 118.578L4.6416 114.647L17.8552 115.106C18.2182 115.119 18.5031 115.073 18.7099 114.969C18.9106 114.866 19.0544 114.717 19.1412 114.523C19.2282 114.322 19.2763 114.09 19.2855 113.825C19.2919 113.641 19.2829 113.456 19.2586 113.27C19.2281 113.084 19.2053 112.942 19.1903 112.843L22.1369 112.326C22.1915 112.525 22.2527 112.804 22.3202 113.164C22.394 113.524 22.4312 113.959 22.4319 114.471C22.4359 115.419 22.2809 116.245 21.967 116.949C21.6533 117.646 21.1851 118.181 20.5624 118.554C19.9397 118.926 19.164 119.093 18.2354 119.055L4.505 118.578Z" fill="white"/>
<path d="M22.5849 109.27L8.52458 107.418L9.03836 103.518L23.0987 105.371L22.5849 109.27ZM6.97022 105.22C6.89383 105.8 6.63607 106.272 6.19694 106.636C5.7525 106.994 5.25872 107.137 4.71559 107.065C4.17857 106.994 3.74476 106.729 3.41417 106.27C3.07828 105.803 2.94852 105.28 3.02491 104.7C3.10129 104.121 3.3617 103.652 3.80613 103.295C4.24527 102.93 4.73335 102.783 5.27038 102.854C5.8135 102.926 6.25301 103.195 6.5889 103.661C6.91949 104.121 7.0466 104.64 6.97022 105.22Z" fill="white"/>
<path d="M25.4088 95.1228C25.039 96.5085 24.4247 97.6282 23.5661 98.4821C22.7031 99.3284 21.6693 99.8838 20.4647 100.148C19.2541 100.411 17.9471 100.356 16.5436 99.9809C15.1282 99.6031 13.9642 98.9994 13.0517 98.1697C12.1332 97.3384 11.5137 96.3417 11.1932 95.1794C10.8683 94.0097 10.8909 92.732 11.2607 91.3463C11.6306 89.9606 12.247 88.8447 13.11 87.9983C13.9686 87.1445 15.0032 86.5861 16.2138 86.3231C17.4184 86.0585 18.7284 86.1151 20.1439 86.4929C21.5474 86.8676 22.7084 87.4705 23.6268 88.3018C24.5394 89.1315 25.1581 90.1312 25.4829 91.301C25.8034 92.4632 25.7787 93.7371 25.4088 95.1228ZM22.4698 94.3192C22.6381 93.6888 22.6001 93.1149 22.356 92.5974C22.106 92.0783 21.6973 91.6284 21.13 91.2476C20.5643 90.8609 19.883 90.5611 19.0861 90.3484C18.2891 90.1357 17.5491 90.056 16.8659 90.1094C16.1843 90.1568 15.6058 90.3432 15.1303 90.6686C14.6548 90.9941 14.333 91.472 14.1647 92.1023C13.9948 92.7387 14.0334 93.3223 14.2803 93.8533C14.5287 94.3783 14.9358 94.8342 15.5015 95.2209C16.0688 95.6017 16.7509 95.8984 17.5478 96.1112C18.3448 96.3239 19.084 96.4065 19.7656 96.3591C20.4488 96.3057 21.0289 96.1134 21.506 95.782C21.9787 95.4431 22.2999 94.9555 22.4698 94.3192Z" fill="white"/>
<path d="M21.9579 78.6112L29.4105 82.0288L27.7709 85.6041L14.88 79.6925L16.4425 76.2851L18.7169 77.3281L18.7862 77.177C18.1673 76.5479 17.7936 75.7975 17.6651 74.926C17.531 74.0519 17.6833 73.1365 18.1221 72.1797C18.5326 71.2845 19.0863 70.5938 19.7833 70.1076C20.4803 69.6214 21.2772 69.3604 22.1739 69.3247C23.065 69.2864 24.0113 69.4969 25.0128 69.9562L33.2207 73.7202L31.5812 77.2954L24.0111 73.8239C23.2247 73.4565 22.5169 73.3757 21.8876 73.5815C21.2527 73.7846 20.771 74.2443 20.4426 74.9605C20.2219 75.4417 20.1305 75.9143 20.1681 76.3785C20.2084 76.8372 20.3796 77.2611 20.682 77.6502C20.9812 78.0313 21.4066 78.3516 21.9579 78.6112Z" fill="white"/>
<path d="M38.8003 63.5599L28.1722 54.1701L30.6542 51.3609L32.5293 53.0175L32.6393 52.893C32.2122 52.1214 32.047 51.3183 32.1436 50.4838C32.2403 49.6493 32.6065 48.8722 33.2422 48.1526C33.8861 47.4237 34.6165 46.9643 35.4333 46.7742C36.2455 46.5801 37.036 46.6707 37.8049 47.0461L37.9027 46.9354C37.4854 46.1807 37.3451 45.3586 37.482 44.4693C37.6183 43.5712 38.0309 42.7324 38.7196 41.9529C39.5958 40.9611 40.623 40.4353 41.801 40.3755C42.9786 40.307 44.1439 40.7822 45.2972 41.8011L52.4448 48.1159L49.8467 51.0567L43.2803 45.2553C42.6899 44.7336 42.1085 44.4992 41.5361 44.5521C40.9637 44.6049 40.4697 44.8666 40.054 45.3371C39.5813 45.8722 39.3831 46.4405 39.4596 47.0419C39.5314 47.6392 39.8441 48.1824 40.3977 48.6715L46.888 54.4056L44.3633 57.2633L37.7346 51.4069C37.2133 50.9464 36.6657 50.7295 36.0917 50.7563C35.5218 50.7785 35.0229 51.0317 34.595 51.5161C34.3056 51.8436 34.1279 52.2122 34.0616 52.6218C33.9948 53.0228 34.0418 53.4298 34.2026 53.8429C34.3587 54.2518 34.6328 54.6295 35.0249 54.9759L41.4045 60.6122L38.8003 63.5599Z" fill="white"/>
<path d="M60.6241 42.104C59.4736 42.9603 58.2967 43.4565 57.0935 43.5924C55.8915 43.7197 54.7362 43.513 53.6278 42.9722C52.5157 42.4265 51.5259 41.571 50.6586 40.4057C49.7839 39.2305 49.2466 38.0344 49.0467 36.8174C48.8431 35.5954 48.9767 34.4294 49.4473 33.3195C49.9192 32.201 50.7304 31.2135 51.8809 30.3572C53.0313 29.5009 54.2076 29.0091 55.4096 28.8818C56.6128 28.7458 57.7705 28.9507 58.8826 29.4964C59.9911 30.0372 60.9826 30.8952 61.8573 32.0704C62.7247 33.2357 63.2601 34.4293 63.4637 35.6513C63.6636 36.8683 63.5276 38.0361 63.0557 39.1547C62.5851 40.2646 61.7745 41.2477 60.6241 42.104ZM58.8197 39.6488C59.3431 39.2593 59.6698 38.7859 59.7999 38.2287C59.9263 37.6666 59.8854 37.0601 59.6773 36.4093C59.4741 35.7549 59.1262 35.0969 58.6338 34.4352C58.1413 33.7735 57.6108 33.2515 57.0422 32.869C56.4785 32.4828 55.9093 32.2696 55.3346 32.2294C54.7598 32.1891 54.2107 32.3638 53.6873 32.7533C53.159 33.1466 52.8267 33.6279 52.6904 34.1974C52.5591 34.7632 52.595 35.3734 52.7982 36.0278C53.0063 36.6786 53.3566 37.3348 53.8491 37.9964C54.3416 38.6581 54.8696 39.182 55.4333 39.5681C56.0019 39.9506 56.576 40.1601 57.1557 40.1967C57.7367 40.2247 58.2913 40.0421 58.8197 39.6488Z" fill="white"/>
<path d="M68.2992 26.9435L72.0183 34.2503L68.513 36.0345L62.08 23.3956L65.4207 21.6952L66.5557 23.9251L66.7038 23.8497C66.6095 22.9723 66.7825 22.1521 67.223 21.3891C67.6607 20.6207 68.3486 19.9978 69.2866 19.5203C70.1643 19.0736 71.0273 18.8761 71.8755 18.9278C72.7237 18.9796 73.5104 19.2698 74.2354 19.7987C74.9576 20.3221 75.5686 21.0747 76.0684 22.0566L80.1645 30.104L76.6592 31.8882L72.8814 24.4661C72.4932 23.6899 71.9886 23.187 71.3676 22.9574C70.7438 22.7224 70.0808 22.7836 69.3786 23.141C68.9069 23.3811 68.5416 23.6948 68.2829 24.082C68.0296 24.4665 67.9006 24.9051 67.8959 25.3979C67.8939 25.8824 68.0283 26.3976 68.2992 26.9435Z" fill="white"/>
<path d="M89.0382 27.1746C87.6456 27.6092 86.3589 27.7012 85.1781 27.4507C84.0013 27.1925 82.9804 26.6277 82.1153 25.7564C81.2483 24.8792 80.592 23.7266 80.1464 22.2988C79.7119 20.9062 79.6007 19.5997 79.8131 18.3793C80.0254 17.1588 80.5306 16.1016 81.3285 15.2078C82.1322 14.3122 83.1981 13.6572 84.526 13.2428C85.4192 12.9641 86.2955 12.8485 87.1551 12.8963C88.0187 12.9363 88.8274 13.1514 89.5811 13.5416C90.3407 13.9301 91.0168 14.5057 91.6095 15.2686C92.2004 16.0256 92.6756 16.98 93.035 18.1316L93.3568 19.1629L81.9253 22.7302L81.1992 20.4034L89.0963 17.939C88.9276 17.3984 88.6607 16.9562 88.2954 16.6123C87.9302 16.2685 87.5023 16.0442 87.0118 15.9393C86.5253 15.8268 86.0088 15.8558 85.4624 16.0263C84.8924 16.2042 84.4284 16.4941 84.0702 16.896C83.7161 17.2902 83.4844 17.7462 83.3751 18.2639C83.264 18.7757 83.289 19.2999 83.45 19.8364L84.1403 22.0487C84.3494 22.7185 84.6534 23.2588 85.0524 23.6695C85.4572 24.0783 85.9301 24.3434 86.4709 24.4648C87.0117 24.5862 87.5965 24.5488 88.2252 24.3526C88.6424 24.2224 89.006 24.0445 89.316 23.8188C89.626 23.5931 89.8677 23.3242 90.0411 23.0121C90.2146 22.7001 90.3127 22.3535 90.3357 21.9724L93.8798 21.1178C93.9639 22.0072 93.8299 22.8486 93.4778 23.6419C93.1298 24.4276 92.5809 25.1276 91.8312 25.742C91.0856 26.3487 90.1546 26.8262 89.0382 27.1746Z" fill="white"/>
<path d="M104.488 8.86983L104.952 11.7876L96.5181 13.1302L96.0536 10.2124L104.488 8.86983ZM97.4343 6.5521L101.319 5.9338L103.397 18.991C103.454 19.3497 103.553 19.6206 103.695 19.8038C103.835 19.9809 104.009 20.0934 104.216 20.1415C104.429 20.1886 104.666 20.1913 104.928 20.1497C105.11 20.1207 105.29 20.0765 105.468 20.0171C105.644 19.9516 105.78 19.9019 105.874 19.8682L106.945 22.6614C106.76 22.7532 106.498 22.8666 106.158 23.0018C105.819 23.143 105.398 23.2629 104.897 23.3614C103.966 23.5469 103.126 23.5529 102.375 23.3795C101.631 23.2051 101.016 22.8479 100.531 22.308C100.046 21.7682 99.734 21.0388 99.594 20.1199L97.4343 6.5521Z" fill="white"/>
<path d="M113.707 22.5023C112.803 22.5233 111.993 22.385 111.278 22.0876C110.563 21.784 109.992 21.3262 109.565 20.7142C109.145 20.096 108.924 19.3191 108.902 18.3838C108.884 17.5961 109.013 16.9313 109.29 16.3892C109.567 15.8471 109.95 15.4072 110.441 15.0695C110.932 14.7319 111.493 14.4726 112.123 14.2918C112.759 14.1108 113.427 13.9783 114.127 13.8944C114.949 13.7892 115.612 13.6938 116.115 13.6082C116.618 13.5165 116.981 13.3911 117.205 13.232C117.429 13.0729 117.538 12.8426 117.531 12.5411L117.53 12.4857C117.516 11.9011 117.321 11.4531 116.944 11.1416C116.574 10.83 116.053 10.682 115.383 10.6976C114.675 10.714 114.116 10.8839 113.704 11.2074C113.293 11.5248 113.025 11.9189 112.901 12.3897L109.257 12.1786C109.422 11.3128 109.767 10.5598 110.294 9.91958C110.821 9.27321 111.508 8.7709 112.356 8.41263C113.209 8.04807 114.202 7.85268 115.335 7.82645C116.122 7.80821 116.878 7.88305 117.602 8.05098C118.333 8.21878 118.983 8.49003 119.552 8.86473C120.127 9.2393 120.584 9.72741 120.925 10.3291C121.265 10.9246 121.445 11.6438 121.464 12.4869L121.686 22.0497L117.956 22.1361L117.911 20.17L117.8 20.1725C117.583 20.6209 117.287 21.0187 116.913 21.366C116.54 21.7071 116.087 21.9792 115.556 22.1824C115.025 22.3794 114.409 22.4861 113.707 22.5023ZM114.771 19.7625C115.349 19.7491 115.857 19.6234 116.295 19.3854C116.733 19.1413 117.073 18.8194 117.316 18.4198C117.559 18.0201 117.675 17.571 117.664 17.0726L117.629 15.568C117.508 15.6509 117.34 15.7286 117.126 15.8013C116.918 15.8677 116.683 15.9316 116.42 15.9931C116.156 16.0485 115.893 16.1008 115.629 16.15C115.365 16.193 115.126 16.2324 114.911 16.2682C114.451 16.3466 114.051 16.4636 113.71 16.6193C113.368 16.775 113.105 16.9811 112.92 17.2379C112.735 17.4884 112.647 17.7983 112.656 18.1675C112.668 18.7029 112.871 19.1076 113.266 19.3817C113.666 19.6495 114.168 19.7764 114.771 19.7625Z" fill="white"/>
<path d="M125.567 22.2001L127.257 8.11939L131.043 8.57389L130.748 11.0307L130.895 11.0483C131.256 10.2052 131.766 9.59686 132.425 9.22335C133.084 8.84374 133.808 8.70125 134.597 8.79589C134.792 8.81937 135.001 8.8569 135.225 8.90849C135.448 8.96009 135.642 9.01754 135.808 9.08086L135.392 12.546C135.216 12.469 134.968 12.3897 134.649 12.308C134.33 12.2264 134.037 12.1694 133.768 12.1371C133.193 12.0681 132.665 12.1318 132.182 12.3281C131.707 12.519 131.311 12.8187 130.996 13.2271C130.686 13.6364 130.497 14.1282 130.428 14.7027L129.472 22.6689L125.567 22.2001Z" fill="white"/>
<path d="M138.791 29.4461C138.31 29.3157 137.869 29.1548 137.468 28.9632C137.071 28.7792 136.752 28.5938 136.509 28.4068L138.132 25.8048C138.541 26.0622 138.922 26.2451 139.275 26.3536C139.634 26.4637 139.969 26.465 140.278 26.3576C140.594 26.2519 140.893 26.0076 141.175 25.625L141.555 25.1061L140.46 9.69522L144.453 10.7771L144.563 21.5973L144.705 21.6359L150.29 12.3589L154.309 13.4481L144.879 27.1738C144.423 27.8412 143.902 28.3887 143.314 28.8161C142.731 29.2511 142.066 29.527 141.32 29.6437C140.573 29.7664 139.73 29.7005 138.791 29.4461Z" fill="white"/>
<path d="M160.14 30.8288L169.517 14.4083L172.933 16.3587L169.407 22.5324L169.511 22.5919C169.85 22.346 170.259 22.1329 170.738 21.9526C171.225 21.7699 171.764 21.695 172.355 21.7276C172.954 21.758 173.598 21.97 174.288 22.3638C175.186 22.8766 175.88 23.5849 176.371 24.4887C176.864 25.3871 177.069 26.4365 176.987 27.6367C176.907 28.8315 176.464 30.1345 175.658 31.5456C174.874 32.9194 173.989 33.9526 173.006 34.6454C172.03 35.3358 171.024 35.7076 169.987 35.7605C168.959 35.8112 167.977 35.5695 167.041 35.0353C166.379 34.6569 165.877 34.2253 165.537 33.7406C165.203 33.2589 164.983 32.7684 164.878 32.2692C164.777 31.7645 164.746 31.2969 164.786 30.8663L164.634 30.7793L163.508 32.7517L160.14 30.8288ZM167 26.5803C166.582 27.3126 166.319 28.0093 166.21 28.6705C166.102 29.3317 166.154 29.9246 166.364 30.449C166.578 30.9681 166.961 31.3848 167.511 31.6992C168.067 32.0167 168.624 32.1329 169.183 32.048C169.745 31.9578 170.281 31.6965 170.79 31.2642C171.307 30.8296 171.77 30.2542 172.179 29.538C172.585 28.8271 172.844 28.1452 172.954 27.4924C173.065 26.8396 173.015 26.251 172.804 25.7265C172.593 25.2021 172.207 24.7796 171.645 24.4591C171.09 24.1417 170.535 24.0201 169.983 24.0943C169.435 24.1716 168.906 24.4222 168.394 24.846C167.883 25.2699 167.418 25.848 167 26.5803Z" fill="white"/>
<path d="M180.196 44.1112C179.075 43.1776 178.3 42.1469 177.869 41.0192C177.447 39.8907 177.367 38.7267 177.629 37.5272C177.896 36.3229 178.507 35.1461 179.465 33.9968C180.398 32.8759 181.435 32.0734 182.575 31.5892C183.716 31.1051 184.878 30.9555 186.062 31.1404C187.25 31.3293 188.379 31.8689 189.448 32.7592C190.167 33.358 190.739 34.0313 191.166 34.7791C191.601 35.5262 191.859 36.3221 191.941 37.1669C192.027 38.0157 191.91 38.896 191.591 39.8079C191.276 40.7151 190.733 41.6322 189.961 42.5592L189.269 43.3892L180.068 35.725L181.628 33.8521L187.984 39.1467C188.347 38.7116 188.573 38.2474 188.664 37.754C188.754 37.2606 188.71 36.7795 188.532 36.3106C188.363 35.841 188.058 35.4229 187.618 35.0566C187.159 34.6744 186.664 34.4421 186.132 34.3594C185.609 34.276 185.1 34.3289 184.606 34.5182C184.116 34.7027 183.689 35.0082 183.326 35.4346L181.843 37.2153C181.394 37.7545 181.105 38.3031 180.976 38.8611C180.853 39.423 180.887 39.964 181.078 40.4841C181.27 41.0042 181.619 41.4751 182.125 41.8966C182.461 42.1763 182.808 42.3851 183.165 42.5229C183.523 42.6607 183.88 42.7178 184.237 42.6941C184.593 42.6703 184.937 42.5647 185.27 42.377L187.911 44.8897C187.21 45.4431 186.431 45.7873 185.573 45.9222C184.724 46.0564 183.839 45.9754 182.916 45.6793C182.001 45.3824 181.095 44.8597 180.196 44.1112Z" fill="white"/>
<path d="M196.621 47.8873L190.398 53.2258L187.837 50.2406L198.601 41.0064L201.042 43.8515L199.143 45.4807L199.251 45.6068C200.081 45.308 200.919 45.2826 201.765 45.5306C202.615 45.7746 203.382 46.296 204.068 47.0949C204.709 47.8423 205.104 48.6343 205.254 49.4708C205.404 50.3073 205.308 51.1402 204.965 51.9695C204.627 52.7949 204.04 53.5663 203.203 54.2837L196.35 60.1632L193.789 57.178L200.11 51.7554C200.773 51.1949 201.142 50.5859 201.219 49.9282C201.3 49.2666 201.084 48.6367 200.571 48.0388C200.226 47.637 199.835 47.3561 199.398 47.1961C198.964 47.0407 198.508 47.0189 198.028 47.1306C197.557 47.2429 197.088 47.4952 196.621 47.8873Z" fill="white"/>
<path d="M201.801 68.8796C201.054 67.6263 200.665 66.3963 200.634 65.1897C200.612 63.9851 200.923 62.8608 201.57 61.8167C202.221 60.7695 203.189 59.8631 204.474 59.0976C205.728 58.351 206.972 57.939 208.209 57.8616C209.445 57.7842 210.591 58.0296 211.646 58.5977C212.704 59.1711 213.589 60.0553 214.301 61.2504C214.78 62.0542 215.096 62.8796 215.249 63.7267C215.411 64.576 215.39 65.4125 215.186 66.2363C214.985 67.0654 214.582 67.8569 213.978 68.6108C213.379 69.3616 212.562 70.0457 211.525 70.6632L210.597 71.216L204.469 60.928L206.563 59.6805L210.797 66.7877C211.283 66.4979 211.651 66.1354 211.9 65.7002C212.15 65.265 212.269 64.7967 212.256 64.2953C212.253 63.7959 212.104 63.3004 211.811 62.8086C211.506 62.2956 211.116 61.9117 210.642 61.6569C210.176 61.4042 209.679 61.2849 209.15 61.2991C208.626 61.3101 208.122 61.4563 207.638 61.7377L205.647 62.9237C205.044 63.2828 204.589 63.7042 204.283 64.1878C203.979 64.6766 203.831 65.1982 203.839 65.7524C203.847 66.3066 204.019 66.8666 204.356 67.4325C204.58 67.8079 204.838 68.1202 205.129 68.3691C205.421 68.6181 205.739 68.7907 206.082 68.8868C206.426 68.9829 206.786 68.9977 207.162 68.9313L208.818 72.1795C207.972 72.4682 207.123 72.5336 206.269 72.3757C205.424 72.22 204.616 71.849 203.844 71.2628C203.08 70.6787 202.399 69.8843 201.801 68.8796Z" fill="white"/>
<path d="M222.954 79.1413L220.228 80.2821L216.849 72.208L219.574 71.0672L222.954 79.1413ZM207.265 78.3911L221.293 72.5197C222.241 72.1228 223.105 71.9782 223.884 72.0858C224.665 72.1991 225.348 72.5141 225.931 73.0307C226.514 73.5472 226.978 74.2172 227.323 75.0405C227.555 75.5969 227.726 76.1229 227.833 76.6185C227.943 77.1197 228.011 77.4982 228.038 77.7538L225.042 78.2473C225.028 78.0863 224.996 77.8925 224.948 77.6658C224.902 77.4447 224.834 77.2263 224.744 77.0106C224.521 76.4768 224.24 76.1572 223.902 76.0517C223.57 75.9438 223.183 75.9826 222.74 76.1679L208.781 82.0108L207.265 78.3911Z" fill="white"/>
<path d="M210.964 87.6499L224.518 83.4763L225.676 87.2354L212.122 91.409L210.964 87.6499ZM226.847 84.8267C226.675 84.2678 226.713 83.7313 226.96 83.2172C227.215 82.7071 227.604 82.3715 228.128 82.2102C228.646 82.0508 229.15 82.1111 229.642 82.3912C230.142 82.6752 230.478 83.0967 230.65 83.6556C230.822 84.2144 230.781 84.7489 230.526 85.259C230.278 85.7731 229.896 86.1099 229.378 86.2693C228.854 86.4305 228.343 86.3691 227.843 86.085C227.351 85.805 227.019 85.3855 226.847 84.8267Z" fill="white"/>
<path d="M228.789 100.4L225.891 100.976L224.226 92.5988L227.124 92.023L228.789 100.4ZM230.835 93.2627L231.601 97.1205L218.633 99.6969C218.277 99.7677 218.01 99.8772 217.832 100.025C217.661 100.172 217.555 100.35 217.515 100.559C217.476 100.774 217.482 101.011 217.534 101.271C217.57 101.452 217.621 101.63 217.687 101.805C217.759 101.979 217.814 102.113 217.851 102.206L215.101 103.383C215.002 103.201 214.879 102.944 214.731 102.609C214.577 102.276 214.441 101.86 214.323 101.363C214.102 100.44 214.064 99.6005 214.209 98.8438C214.355 98.0932 214.688 97.4653 215.209 96.9601C215.73 96.455 216.447 96.1149 217.36 95.9398L230.835 93.2627Z" fill="white"/>
<path d="M51.4375 156.909V117.818H53.9418V156.909H51.4375ZM56.8736 131.5C56.7921 130.482 56.4104 129.688 55.7283 129.118C55.0565 128.548 54.0334 128.263 52.6591 128.263C51.7836 128.263 51.0659 128.37 50.506 128.583C49.9563 128.787 49.5491 129.067 49.2844 129.423C49.0198 129.78 48.8823 130.187 48.8722 130.645C48.8518 131.022 48.918 131.363 49.0707 131.668C49.2335 131.963 49.488 132.233 49.8342 132.477C50.1803 132.711 50.6231 132.925 51.1626 133.119C51.7022 133.312 52.3435 133.485 53.0866 133.638L55.652 134.188C57.3826 134.554 58.8638 135.038 60.0955 135.638C61.3273 136.239 62.3351 136.946 63.119 137.761C63.9028 138.565 64.478 139.471 64.8445 140.479C65.2211 141.487 65.4145 142.586 65.4247 143.777C65.4145 145.833 64.9005 147.574 63.8825 148.999C62.8645 150.424 61.4087 151.509 59.5153 152.252C57.632 152.995 55.367 153.366 52.7202 153.366C50.0021 153.366 47.6302 152.964 45.6044 152.16C43.5888 151.356 42.0211 150.119 40.9013 148.45C39.7917 146.77 39.2318 144.622 39.2216 142.006H47.2841C47.335 142.963 47.5742 143.767 48.0018 144.418C48.4293 145.07 49.0299 145.564 49.8036 145.9C50.5875 146.235 51.5189 146.403 52.598 146.403C53.504 146.403 54.2624 146.291 54.8732 146.067C55.484 145.844 55.9472 145.533 56.2628 145.136C56.5784 144.739 56.7412 144.286 56.7514 143.777C56.7412 143.299 56.5835 142.881 56.2781 142.525C55.9828 142.158 55.4942 141.833 54.8121 141.548C54.1301 141.252 53.2088 140.978 52.0483 140.723L48.9332 140.051C46.1643 139.451 43.9807 138.448 42.3825 137.043C40.7944 135.628 40.0054 133.699 40.0156 131.256C40.0054 129.271 40.5348 127.535 41.6037 126.049C42.6828 124.552 44.1741 123.387 46.0778 122.552C47.9916 121.717 50.1854 121.3 52.6591 121.3C55.1837 121.3 57.3673 121.722 59.2099 122.567C61.0524 123.412 62.4725 124.603 63.4702 126.14C64.478 127.667 64.987 129.454 64.9972 131.5H56.8736ZM84.0317 153.428C81.6292 153.428 79.4965 153.005 77.6336 152.16C75.7809 151.305 74.32 150.129 73.2511 148.633C72.1924 147.136 71.6529 145.416 71.6325 143.472H79.8783C79.9088 144.551 80.3262 145.411 81.1304 146.052C81.9448 146.694 82.9119 147.014 84.0317 147.014C84.897 147.014 85.6605 146.831 86.3222 146.464C86.9839 146.088 87.503 145.558 87.8797 144.876C88.2564 144.194 88.4396 143.4 88.4294 142.494C88.4396 141.578 88.2564 140.784 87.8797 140.112C87.503 139.43 86.9839 138.906 86.3222 138.539C85.6605 138.163 84.897 137.974 84.0317 137.974C83.1359 137.974 82.3062 138.193 81.5427 138.631C80.7894 139.059 80.2346 139.654 79.8783 140.418L72.4266 138.952L73.6482 121.727H94.6595V128.507H80.6112L80.0004 135.409H80.1837C80.6723 134.462 81.5172 133.679 82.7185 133.058C83.9197 132.426 85.3144 132.111 86.9024 132.111C88.7653 132.111 90.4247 132.543 91.8804 133.409C93.3463 134.274 94.5017 135.47 95.3467 136.997C96.2018 138.514 96.6242 140.265 96.6141 142.25C96.6242 144.429 96.1051 146.363 95.0565 148.053C94.0182 149.732 92.5574 151.051 90.6741 152.007C88.7908 152.954 86.5767 153.428 84.0317 153.428ZM116.691 153.855C113.851 153.845 111.397 153.188 109.331 151.885C107.264 150.582 105.671 148.704 104.551 146.251C103.431 143.797 102.877 140.855 102.887 137.425C102.897 133.984 103.457 131.062 104.566 128.66C105.686 126.257 107.274 124.43 109.331 123.178C111.397 121.926 113.851 121.3 116.691 121.3C119.531 121.3 121.984 121.931 124.051 123.193C126.117 124.445 127.711 126.273 128.83 128.675C129.95 131.078 130.505 133.994 130.495 137.425C130.495 140.876 129.935 143.828 128.815 146.281C127.695 148.735 126.102 150.613 124.036 151.916C121.979 153.209 119.531 153.855 116.691 153.855ZM116.691 146.953C118.157 146.953 119.358 146.19 120.294 144.663C121.241 143.125 121.709 140.713 121.699 137.425C121.699 135.277 121.486 133.521 121.058 132.157C120.63 130.792 120.04 129.785 119.287 129.133C118.533 128.471 117.668 128.141 116.691 128.141C115.225 128.141 114.029 128.884 113.102 130.37C112.176 131.856 111.703 134.208 111.682 137.425C111.672 139.613 111.881 141.415 112.308 142.83C112.736 144.235 113.326 145.273 114.08 145.945C114.843 146.617 115.713 146.953 116.691 146.953ZM150.896 153.855C148.056 153.845 145.602 153.188 143.536 151.885C141.469 150.582 139.876 148.704 138.756 146.251C137.637 143.797 137.082 140.855 137.092 137.425C137.102 133.984 137.662 131.062 138.772 128.66C139.891 126.257 141.479 124.43 143.536 123.178C145.602 121.926 148.056 121.3 150.896 121.3C153.736 121.3 156.189 121.931 158.256 123.193C160.323 124.445 161.916 126.273 163.035 128.675C164.155 131.078 164.71 133.994 164.7 137.425C164.7 140.876 164.14 143.828 163.02 146.281C161.9 148.735 160.307 150.613 158.241 151.916C156.184 153.209 153.736 153.855 150.896 153.855ZM150.896 146.953C152.362 146.953 153.563 146.19 154.5 144.663C155.446 143.125 155.915 140.713 155.904 137.425C155.904 135.277 155.691 133.521 155.263 132.157C154.836 130.792 154.245 129.785 153.492 129.133C152.738 128.471 151.873 128.141 150.896 128.141C149.43 128.141 148.234 128.884 147.307 130.37C146.381 131.856 145.908 134.208 145.887 137.425C145.877 139.613 146.086 141.415 146.513 142.83C146.941 144.235 147.531 145.273 148.285 145.945C149.048 146.617 149.919 146.953 150.896 146.953ZM185.101 153.855C182.261 153.845 179.808 153.188 177.741 151.885C175.674 150.582 174.081 148.704 172.962 146.251C171.842 143.797 171.287 140.855 171.297 137.425C171.307 133.984 171.867 131.062 172.977 128.66C174.097 126.257 175.685 124.43 177.741 123.178C179.808 121.926 182.261 121.3 185.101 121.3C187.941 121.3 190.395 121.931 192.461 123.193C194.528 124.445 196.121 126.273 197.241 128.675C198.36 131.078 198.915 133.994 198.905 137.425C198.905 140.876 198.345 143.828 197.225 146.281C196.106 148.735 194.512 150.613 192.446 151.916C190.39 153.209 187.941 153.855 185.101 153.855ZM185.101 146.953C186.567 146.953 187.768 146.19 188.705 144.663C189.651 143.125 190.12 140.713 190.11 137.425C190.11 135.277 189.896 133.521 189.468 132.157C189.041 130.792 188.45 129.785 187.697 129.133C186.944 128.471 186.078 128.141 185.101 128.141C183.635 128.141 182.439 128.884 181.513 130.37C180.586 131.856 180.113 134.208 180.093 137.425C180.082 139.613 180.291 141.415 180.719 142.83C181.146 144.235 181.737 145.273 182.49 145.945C183.253 146.617 184.124 146.953 185.101 146.953Z" fill="#00D5E4"/>
<path d="M74.8736 81.5C74.7921 80.482 74.4104 79.688 73.7283 79.1179C73.0565 78.5478 72.0334 78.2628 70.6591 78.2628C69.7836 78.2628 69.0659 78.3697 68.506 78.5834C67.9563 78.787 67.5491 79.067 67.2844 79.4233C67.0198 79.7796 66.8823 80.1868 66.8722 80.6449C66.8518 81.0215 66.918 81.3626 67.0707 81.668C67.2335 81.9632 67.488 82.233 67.8342 82.4773C68.1803 82.7114 68.6231 82.9252 69.1626 83.1186C69.7022 83.312 70.3435 83.4851 71.0866 83.6378L73.652 84.1875C75.3826 84.554 76.8638 85.0375 78.0955 85.6381C79.3273 86.2388 80.3351 86.9463 81.119 87.7607C81.9028 88.5649 82.478 89.4709 82.8445 90.4787C83.2211 91.4865 83.4145 92.5859 83.4247 93.777C83.4145 95.8333 82.9005 97.5741 81.8825 98.9993C80.8645 100.424 79.4087 101.509 77.5153 102.252C75.632 102.995 73.367 103.366 70.7202 103.366C68.0021 103.366 65.6302 102.964 63.6044 102.16C61.5888 101.356 60.0211 100.119 58.9013 98.4496C57.7917 96.7699 57.2318 94.6219 57.2216 92.0057H65.2841C65.335 92.9626 65.5742 93.7668 66.0018 94.4183C66.4293 95.0698 67.0299 95.5636 67.8036 95.8995C68.5875 96.2354 69.5189 96.4034 70.598 96.4034C71.504 96.4034 72.2624 96.2914 72.8732 96.0675C73.484 95.8435 73.9472 95.533 74.2628 95.136C74.5784 94.739 74.7412 94.286 74.7514 93.777C74.7412 93.2985 74.5835 92.8812 74.2781 92.5249C73.9828 92.1584 73.4942 91.8326 72.8121 91.5476C72.1301 91.2524 71.2088 90.9775 70.0483 90.723L66.9332 90.0511C64.1643 89.4505 61.9807 88.4478 60.3825 87.043C58.7944 85.628 58.0054 83.6989 58.0156 81.2557C58.0054 79.2706 58.5348 77.5349 59.6037 76.0487C60.6828 74.5522 62.1741 73.3866 64.0778 72.5518C65.9916 71.7171 68.1854 71.2997 70.6591 71.2997C73.1837 71.2997 75.3673 71.7222 77.2099 72.5671C79.0524 73.412 80.4725 74.6031 81.4702 76.1403C82.478 77.6673 82.987 79.4538 82.9972 81.5H74.8736ZM96.3551 103H87.1932L97.5156 71.7273H109.121L119.443 103H110.281L103.44 80.3395H103.196L96.3551 103ZM94.6449 90.6619H111.869V97.0142H94.6449V90.6619ZM129.266 71.7273L135.679 93.777H135.924L142.337 71.7273H151.927L141.604 103H129.999L119.677 71.7273H129.266ZM157.734 103V71.7273H180.272V78.5682H166.224V83.9432H179.111V90.7841H166.224V96.1591H180.211V103H157.734Z" fill="#00D5E4"/>
</svg>
